<?xml version="1.0" encoding="UTF-8" standalone="no"?>
<svg
   version="1.1"
   id="svg68"
   sodipodi:docname="amorphea_tree.svg"
   width="79.402359"
   height="76.470993"
   inkscape:version="1.1.2 (0a00cf5339, 2022-02-04)"
   xmlns:inkscape="http://www.inkscape.org/namespaces/inkscape"
   xmlns:sodipodi="http://sodipodi.sourceforge.net/DTD/sodipodi-0.dtd"
   xmlns="http://www.w3.org/2000/svg"
   xmlns:svg="http://www.w3.org/2000/svg">
  <defs
     id="defs72" />
  <sodipodi:namedview
     id="namedview70"
     pagecolor="#ffffff"
     bordercolor="#666666"
     borderopacity="1.0"
     inkscape:pageshadow="2"
     inkscape:pageopacity="0.0"
     inkscape:pagecheckerboard="0"
     showgrid="false"
     fit-margin-top="1"
     fit-margin-left="1"
     fit-margin-right="1"
     fit-margin-bottom="1"
     inkscape:zoom="4.46"
     inkscape:cx="146.30045"
     inkscape:cy="70.73991"
     inkscape:window-width="2490"
     inkscape:window-height="1376"
     inkscape:window-x="0"
     inkscape:window-y="0"
     inkscape:window-maximized="1"
     inkscape:current-layer="svg68" />
  <text
     x="34.329102"
     y="4.5791016"
     font-family="Arial"
     font-size="5px"
     id="text2">Amoebozoa</text>
  <text
     x="34.329102"
     y="11.662401"
     font-family="Arial"
     font-size="5px"
     id="text4">Breviatea</text>
  <text
     x="34.329102"
     y="18.745802"
     font-family="Arial"
     font-size="5px"
     id="text6">Apusomonadida</text>
  <text
     x="34.329102"
     y="25.829102"
     font-family="Arial"
     font-size="5px"
     id="text8">Fonticulida</text>
  <text
     x="34.329102"
     y="32.912403"
     font-family="Arial"
     font-size="5px"
     id="text10">Nucleariida</text>
  <polyline
     points="32.8291,28.3333 28.8535,28.3333 28.8535,31.875"
     style="fill:none;stroke:#000000;stroke-width:1"
     id="polyline12"
     transform="translate(-3.5,-4.1708984)" />
  <polyline
     points="32.8291,35.4167 28.8535,35.4167 28.8535,31.875"
     style="fill:none;stroke:#000000;stroke-width:1"
     id="polyline14"
     transform="translate(-3.5,-4.1708984)" />
  <text
     x="34.329102"
     y="39.9958"
     font-family="Arial"
     font-size="5px"
     id="text16">Fungi</text>
  <polyline
     points="28.8535,31.875 24.8779,31.875 24.8779,37.1875"
     style="fill:none;stroke:#000000;stroke-width:1"
     id="polyline18"
     transform="translate(-3.5,-4.1708984)" />
  <polyline
     points="32.8291,42.5 24.8779,42.5 24.8779,37.1875"
     style="fill:none;stroke:#000000;stroke-width:1"
     id="polyline20"
     transform="translate(-3.5,-4.1708984)" />
  <text
     x="38.304699"
     y="47.079102"
     font-family="Arial"
     font-size="5px"
     id="text22">Ichthyosporea</text>
  <text
     x="38.304699"
     y="54.162403"
     font-family="Arial"
     font-size="5px"
     id="text24">Pluriformea</text>
  <text
     x="38.304699"
     y="61.245804"
     font-family="Arial"
     font-size="5px"
     id="text26">Filasterea</text>
  <text
     x="38.304699"
     y="68.329102"
     font-family="Arial"
     font-size="5px"
     id="text28">Choanoflagellatea</text>
  <text
     x="38.304699"
     y="75.412399"
     font-family="Arial"
     font-size="5px"
     id="text30">Animalia</text>
  <polyline
     points="36.8047,70.8333 32.8291,70.8333 32.8291,74.375"
     style="fill:none;stroke:#000000;stroke-width:1"
     id="polyline32"
     transform="translate(-3.5,-4.1708984)" />
  <polyline
     points="36.8047,77.9167 32.8291,77.9167 32.8291,74.375"
     style="fill:none;stroke:#000000;stroke-width:1"
     id="polyline34"
     transform="translate(-3.5,-4.1708984)" />
  <polyline
     points="36.8047,63.75 28.8535,63.75 28.8535,69.0625"
     style="fill:none;stroke:#000000;stroke-width:1"
     id="polyline36"
     transform="translate(-3.5,-4.1708984)" />
  <polyline
     points="32.8291,74.375 28.8535,74.375 28.8535,69.0625"
     style="fill:none;stroke:#000000;stroke-width:1"
     id="polyline38"
     transform="translate(-3.5,-4.1708984)" />
  <polyline
     points="36.8047,56.6667 24.8779,56.6667 24.8779,62.8646"
     style="fill:none;stroke:#000000;stroke-width:1"
     id="polyline40"
     transform="translate(-3.5,-4.1708984)" />
  <polyline
     points="28.8535,69.0625 24.8779,69.0625 24.8779,62.8646"
     style="fill:none;stroke:#000000;stroke-width:1"
     id="polyline42"
     transform="translate(-3.5,-4.1708984)" />
  <polyline
     points="36.8047,49.5833 20.9024,49.5833 20.9024,56.224"
     style="fill:none;stroke:#000000;stroke-width:1"
     id="polyline44"
     transform="translate(-3.5,-4.1708984)" />
  <polyline
     points="24.8779,62.8646 20.9024,62.8646 20.9024,56.224"
     style="fill:none;stroke:#000000;stroke-width:1"
     id="polyline46"
     transform="translate(-3.5,-4.1708984)" />
  <polyline
     points="24.8779,37.1875 16.9268,37.1875 16.9268,46.7057"
     style="fill:none;stroke:#000000;stroke-width:1"
     id="polyline48"
     transform="translate(-3.5,-4.1708984)" />
  <polyline
     points="20.9024,56.224 16.9268,56.224 16.9268,46.7057"
     style="fill:none;stroke:#000000;stroke-width:1"
     id="polyline50"
     transform="translate(-3.5,-4.1708984)" />
  <polyline
     points="32.8291,21.25 12.9512,21.25 12.9512,33.9779"
     style="fill:none;stroke:#000000;stroke-width:1"
     id="polyline52"
     transform="translate(-3.5,-4.1708984)" />
  <polyline
     points="16.9268,46.7057 12.9512,46.7057 12.9512,33.9779"
     style="fill:none;stroke:#000000;stroke-width:1"
     id="polyline54"
     transform="translate(-3.5,-4.1708984)" />
  <polyline
     points="32.8291,14.1667 8.97559,14.1667 8.97559,24.0723"
     style="fill:none;stroke:#000000;stroke-width:1"
     id="polyline56"
     transform="translate(-3.5,-4.1708984)" />
  <polyline
     points="12.9512,33.9779 8.97559,33.9779 8.97559,24.0723"
     style="fill:none;stroke:#000000;stroke-width:1"
     id="polyline58"
     transform="translate(-3.5,-4.1708984)" />
  <polyline
     points="32.8291,7.08333 5,7.08333 5,15.5778"
     style="fill:none;stroke:#000000;stroke-width:1"
     id="polyline60"
     transform="translate(-3.5,-4.1708984)" />
  <polyline
     points="8.97559,24.0723 5,24.0723 5,15.5778"
     style="fill:none;stroke:#000000;stroke-width:1"
     id="polyline62"
     transform="translate(-3.5,-4.1708984)" />
</svg>
