<?xml version="1.0" encoding="UTF-8" standalone="no"?>
<!-- Created with Inkscape (http://www.inkscape.org/) -->

<svg
   xmlns:dc="http://purl.org/dc/elements/1.1/"
   xmlns:cc="http://creativecommons.org/ns#"
   xmlns:rdf="http://www.w3.org/1999/02/22-rdf-syntax-ns#"
   xmlns:svg="http://www.w3.org/2000/svg"
   xmlns="http://www.w3.org/2000/svg"
   xmlns:sodipodi="http://sodipodi.sourceforge.net/DTD/sodipodi-0.dtd"
   xmlns:inkscape="http://www.inkscape.org/namespaces/inkscape"
   width="135.9339mm"
   height="66.308838mm"
   viewBox="0 0 135.9339 66.308838"
   version="1.1"
   id="svg8"
   inkscape:version="0.92.3 (2405546, 2018-03-11)"
   sodipodi:docname="disco_hym.svg"
   inkscape:export-filename="/home/martin/CloudStation/CloudStation/teaching/artidentifiering_naturvardare/2021/foreläsning/img/disco_hym.png"
   inkscape:export-xdpi="900"
   inkscape:export-ydpi="900">
  <defs
     id="defs2" />
  <sodipodi:namedview
     id="base"
     pagecolor="#ffffff"
     bordercolor="#666666"
     borderopacity="1.0"
     inkscape:pageopacity="0.0"
     inkscape:pageshadow="2"
     inkscape:zoom="1.979899"
     inkscape:cx="332.22219"
     inkscape:cy="65.960283"
     inkscape:document-units="mm"
     inkscape:current-layer="layer1"
     showgrid="false"
     fit-margin-top="0"
     fit-margin-left="0"
     fit-margin-right="0"
     fit-margin-bottom="0"
     inkscape:window-width="2493"
     inkscape:window-height="1385"
     inkscape:window-x="67"
     inkscape:window-y="27"
     inkscape:window-maximized="1" />
  <metadata
     id="metadata5">
    <rdf:RDF>
      <cc:Work
         rdf:about="">
        <dc:format>image/svg+xml</dc:format>
        <dc:type
           rdf:resource="http://purl.org/dc/dcmitype/StillImage" />
        <dc:title></dc:title>
      </cc:Work>
    </rdf:RDF>
  </metadata>
  <g
     inkscape:label="Layer 1"
     inkscape:groupmode="layer"
     id="layer1"
     transform="translate(-2.1339468,-51.104983)">
    <path
       style="fill:none;stroke:#000000;stroke-width:0.565;stroke-linecap:round;stroke-linejoin:round;stroke-miterlimit:4;stroke-dasharray:none;stroke-opacity:1"
       d="m 2.6726941,67.856571 c 9.5192009,11.685781 19.8826209,20.557497 31.5378039,25.123336 1.413023,3.904617 2.120022,7.950433 0,12.561663"
       id="path4791"
       inkscape:connector-curvature="0"
       sodipodi:nodetypes="ccc" />
    <path
       style="fill:none;stroke:#000000;stroke-width:0.565;stroke-linecap:round;stroke-linejoin:round;stroke-miterlimit:4;stroke-dasharray:none;stroke-opacity:1"
       d="m 83.418407,67.856576 c -9.51923,11.68578 -19.882686,20.55749 -31.537867,25.12333 -1.41303,3.904618 -2.12002,7.950434 0,12.561664"
       id="path4791-2"
       inkscape:connector-curvature="0"
       sodipodi:nodetypes="ccc" />
    <path
       style="fill:none;stroke:#963c0a;stroke-width:1.06500006;stroke-linecap:round;stroke-linejoin:round;stroke-miterlimit:4;stroke-dasharray:none;stroke-opacity:1"
       d="m 2.6726941,67.85657 c 25.7188679,17.786036 52.3600809,21.859859 80.7457129,5e-6 v 0"
       id="path4808"
       inkscape:connector-curvature="0"
       sodipodi:nodetypes="ccc" />
    <path
       style="fill:none;stroke:#963c0a;stroke-width:1.06500006;stroke-linecap:round;stroke-linejoin:round;stroke-miterlimit:4;stroke-dasharray:none;stroke-opacity:1"
       d="m 107.44234,75.567196 c -0.50564,0.295137 -1.068,0.438626 -1.60361,0.668173 -0.0915,0.03924 -0.18439,0.07838 -0.26727,0.133636 -0.0566,0.03776 -0.37326,0.345612 -0.40091,0.400905 -0.0199,0.03984 0.0315,0.102134 0,0.133633 -0.0315,0.0315 -0.10213,-0.0315 -0.13363,0 -0.0315,0.0315 0,0.08909 0,0.133636 0,0.04455 0,0.08909 0,0.133635 0,0.267269 0,0.534538 0,0.801807 0,0.267271 0,0.53454 0,0.801809 0,0.04454 -0.0315,0.102137 0,0.133636 0.0315,0.0315 0.0938,-0.01992 0.13363,0 0.0564,0.02817 0.0832,0.09584 0.13364,0.133633 0.12849,0.09637 0.26145,0.187587 0.4009,0.267271 0.27266,0.1558 0.872,0.468395 1.20272,0.534538 0.0873,0.01746 0.18275,-0.02817 0.26727,0 0.0598,0.01992 0.0773,0.105463 0.13363,0.133636 0.0398,0.01992 0.0891,0 0.13363,0 0.0446,0 0.0891,0 0.13364,0 0.26727,0 0.53454,0 0.80181,0 0.0445,0 0.10213,-0.0315 0.13363,0 0.17818,0.178178 -0.22272,0.133633 0.13364,0.133633"
       id="path4820"
       inkscape:connector-curvature="0" />
    <path
       style="fill:none;stroke:#963c0a;stroke-width:1.06500006;stroke-linecap:round;stroke-linejoin:round;stroke-miterlimit:4;stroke-dasharray:none;stroke-opacity:1"
       d="m 106.64054,92.405176 c 0.17818,-0.178179 0.37322,-0.340961 0.53454,-0.534538 0.12753,-0.15304 0.15676,-0.368787 0.26726,-0.53454 0.0699,-0.104831 0.21093,-0.154578 0.26727,-0.267269 0.0199,-0.03984 -0.0199,-0.09379 0,-0.133636 0.0282,-0.05634 0.0891,-0.08909 0.13364,-0.133636 0.10438,-0.104378 0.32403,-0.285588 0.4009,-0.400902 0.0553,-0.08288 0.0632,-0.196839 0.13364,-0.267271 0.13522,-0.135218 0.5377,-0.188987 0.66817,-0.267269 0.10804,-0.06482 0.16889,-0.188563 0.26727,-0.267269 0.12542,-0.100332 0.26319,-0.184637 0.40091,-0.267269 0.24578,-0.147473 0.38133,-0.171656 0.66817,-0.267271 0.13364,-0.04454 0.26278,-0.106008 0.4009,-0.133633 0.0874,-0.01746 0.18084,0.02162 0.26727,0 0.19327,-0.04832 0.34555,-0.204274 0.53454,-0.267272 0.0841,-0.02804 0.54772,0 0.66818,0 0.22272,0 0.44544,0 0.66817,0 0.0891,0 0.18084,-0.02162 0.26727,0 0.0966,0.02416 0.17064,0.10948 0.26727,0.133636 0.0864,0.02162 0.18084,-0.02162 0.26727,0 0.23845,0.05961 0.37234,0.238705 0.53454,0.400905 0.0445,0.04454 0.0773,0.105463 0.13363,0.133635 0.0398,0.01992 0.10214,-0.0315 0.13364,0 0.0315,0.0315 -0.0315,0.102135 0,0.133634 0.0315,0.0315 0.10213,-0.0315 0.13363,0 0.0704,0.07043 0.0632,0.196839 0.13364,0.267268 0.0315,0.0315 0.10213,-0.0315 0.13363,0 0.0704,0.07043 0.0784,0.184394 0.13364,0.267272 0.0699,0.10483 0.22742,0.147743 0.26727,0.267269 0,0.608343 -0.063,0.0076 0.13363,0.400904 0.0535,0.106908 -0.0534,0.293997 0,0.400905 0.0282,0.05635 0.10546,0.07729 0.13363,0.133633 0.0199,0.03984 0,0.08909 0,0.133636 0,0.04454 0,0.08909 0,0.133636 0,0.06988 0.0176,0.499401 0,0.534537 -0.0282,0.05635 -0.10546,0.07729 -0.13363,0.133636 -0.0398,0.07969 0.0398,0.187584 0,0.267269 -0.0282,0.05635 -0.10546,0.07729 -0.13363,0.133636 -0.0399,0.07968 0.063,0.204271 0,0.267268 -0.0315,0.0315 -0.13364,0.04455 -0.13364,0 0,-0.04454 0.0891,0 0.13364,0"
       id="path4822"
       inkscape:connector-curvature="0" />
    <path
       style="fill:none;stroke:#963c0a;stroke-width:1.06500006;stroke-linecap:round;stroke-linejoin:round;stroke-miterlimit:4;stroke-dasharray:none;stroke-opacity:1"
       d="m 112.52047,98.819644 c 0.13363,0.222726 0.26727,0.44545 0.4009,0.668174 0,0.08909 -0.0398,0.187587 0,0.267271 0.0564,0.112689 0.21092,0.154578 0.26727,0.267271 0.0398,0.0797 -0.0398,0.18758 0,0.26727 0.0564,0.11269 0.18856,0.16888 0.26727,0.26727 0.66259,0.82824 -0.0154,0.0436 0.4009,0.66817 0.11854,0.17781 0.40926,0.27562 0.53454,0.4009 0.0704,0.0704 0.0632,0.19684 0.13364,0.26727 0.0704,0.0704 0.19684,0.0632 0.26727,0.13364 0.0704,0.0704 0.0632,0.19684 0.13363,0.26727 0.0704,0.0704 0.18759,0.0739 0.26727,0.13363 0.15119,0.11339 0.24366,0.29608 0.4009,0.40091 0.0829,0.0553 0.19684,0.0632 0.26728,0.13363 0.0704,0.0704 0.0632,0.19684 0.13363,0.26727 0.0704,0.0704 0.18439,0.0784 0.26727,0.13363 0.10483,0.0699 0.16244,0.19739 0.26727,0.26728 0.0829,0.0553 0.18439,0.0784 0.26727,0.13363 0.0524,0.0349 0.0812,0.0987 0.13363,0.13364 0.0673,0.29442 0.27491,0.0706 0.40091,0.13363 0.0563,0.0282 0.0773,0.10546 0.13363,0.13363 0.0398,0.0199 0.0938,-0.0199 0.13364,0 0.0563,0.0282 0.0773,0.10547 0.13363,0.13364 0.0398,0.0199 0.0938,-0.0199 0.13364,0 0.0563,0.0282 0.0773,0.10546 0.13363,0.13363 0.0398,0.0199 0.0891,0 0.13364,0 0.0445,0 0.0891,0 0.13363,0 0.26727,0 0.53454,0 0.80181,0 0.26727,0 0.53454,0 0.80181,0 0.0891,0 0.17991,0.0175 0.26727,0 0.13813,-0.0276 0.26424,-0.0995 0.4009,-0.13363 0.13983,-0.035 0.40597,0.0429 0.53454,0 0.0945,-0.0315 0.17278,-0.10214 0.26727,-0.13364 0.0423,-0.0141 0.0938,0.0199 0.13364,0 0.0563,-0.0282 0.0773,-0.10546 0.13363,-0.13363 0.0398,-0.0199 0.0891,0 0.13363,0 0.0891,-0.0445 0.1844,-0.0784 0.26727,-0.13363 0.10484,-0.0699 0.16244,-0.19739 0.26727,-0.26727 -0.016,-0.25278 0.31217,-0.0893 0.40091,-0.13364 0.0563,-0.0282 0.0773,-0.10546 0.13363,-0.13364 0.0797,-0.0398 0.18759,0.0398 0.26727,0 0.0564,-0.0282 0.0773,-0.10546 0.13364,-0.13363 0.0398,-0.0199 0.0938,0.0199 0.13363,0 0.0564,-0.0282 0.0773,-0.10546 0.13364,-0.13363 0.0398,-0.0199 0.0938,0.0199 0.13363,0 0.2117,-0.10585 0.13364,-0.44727 0.13364,-0.13364"
       id="path4824"
       inkscape:connector-curvature="0" />
    <path
       style="fill:none;stroke:#963c0a;stroke-width:1.06500006;stroke-linecap:round;stroke-linejoin:round;stroke-miterlimit:4;stroke-dasharray:none;stroke-opacity:1"
       d="m 110.51595,65.945493 c 0.57908,0 1.15816,0 1.73725,0 0.13363,0 0.26727,0 0.4009,0 0.0891,0 0.18275,-0.02817 0.26727,0 0.0598,0.01992 0.0739,0.113713 0.13363,0.133634 0.0845,0.02817 0.17818,0 0.26728,0 0.0445,0 0.0938,-0.01992 0.13363,0 0.0563,0.02817 0.0773,0.105462 0.13363,0.133635 0.0797,0.03984 0.18084,-0.02162 0.26727,0 0.13666,0.03417 0.27012,0.08132 0.40091,0.133636 0.34362,0.137446 0.62139,0.346107 0.93544,0.534538 0.0854,0.05125 0.18759,0.07387 0.26727,0.133636 0.10079,0.07559 0.16648,0.191674 0.26727,0.267268 0.0797,0.05976 0.18758,0.07387 0.26727,0.133636 0.10079,0.07559 0.16244,0.197382 0.26727,0.267269 0.0371,0.02471 0.0891,0 0.13363,0 0.13364,0.08909 0.28734,0.153702 0.40091,0.267269 0.0704,0.07043 0.0739,0.187587 0.13363,0.267269 0.1235,0.164666 0.42113,0.364416 0.53454,0.53454 0.0553,0.08288 0.10214,0.172776 0.13364,0.267269 0.0141,0.04226 -0.0315,0.102137 0,0.133636 0.0315,0.0315 0.10213,-0.0315 0.13363,0 0.15356,0.153556 0.13364,0.236336 0.13364,0.400904 0,0.08909 0,0.178179 0,0.267269 0,0.04454 -0.0141,0.09138 0,0.133636 0.32265,0.96797 -0.0385,-0.210691 0.26727,0.400904 0.0199,0.03984 0,0.08909 0,0.133634 0,0.04454 0,0.08909 0,0.133635 0,0.09295 0.0242,0.619848 0,0.668174 -0.0282,0.05635 -0.0987,0.08122 -0.13364,0.133635 -0.0553,0.08288 -0.0784,0.184391 -0.13363,0.267269 -0.035,0.05242 -0.10547,0.07729 -0.13364,0.133633 -0.0891,0.178181 0.13364,0.133636 -0.13363,0.133636"
       id="path4826"
       inkscape:connector-curvature="0" />
    <path
       style="fill:none;stroke:#963c0a;stroke-width:1.06500006;stroke-linecap:round;stroke-linejoin:round;stroke-miterlimit:4;stroke-dasharray:none;stroke-opacity:1"
       d="m 117.33132,60.199199 c 0.1197,0.534334 0.46867,0.971224 0.66817,1.469982 0.0523,0.130789 0.0706,0.274913 0.13364,0.400905 0.0282,0.05635 0.0958,0.08324 0.13363,0.133633 0.0964,0.128487 0.18464,0.263184 0.26727,0.400905 0.29442,0.0673 0.0706,0.274912 0.13364,0.400904 0.0802,0.160361 0.32072,0.240543 0.4009,0.400905 0.0199,0.03984 -0.0199,0.09379 0,0.133636 0.0658,0.131497 0.46879,0.403037 0.53454,0.534537 0.0199,0.03984 -0.0398,0.113713 0,0.133636 0.0797,0.03984 0.18758,-0.03984 0.26727,0 0.0398,0.01992 -0.0315,0.102137 0,0.133633 0.0704,0.07043 0.17277,0.102137 0.26727,0.133636 0.0423,0.01408 0.10214,-0.0315 0.13363,0 0.063,0.06299 -0.063,0.204274 0,0.267269 0.0315,0.0315 0.0891,0 0.13364,0 0.13363,0 0.26727,0 0.4009,0 0.62363,0 1.24726,0 1.87089,0 0.0445,0 0.0891,0 0.13363,0 0.0446,0 0.13364,-0.04455 0.13364,0 0,0.04454 -0.0891,0 -0.13364,0"
       id="path4828"
       inkscape:connector-curvature="0" />
    <path
       style="fill:none;stroke:#963c0a;stroke-width:1.06500006;stroke-linecap:round;stroke-linejoin:round;stroke-miterlimit:4;stroke-dasharray:none;stroke-opacity:1"
       d="m 124.54759,78.373525 c -0.22272,0.04455 -0.45269,0.06181 -0.66817,0.133636 -0.0598,0.01992 -0.0891,0.08909 -0.13363,0.133633 -0.0445,0.04455 -0.0891,0.08909 -0.13364,0.133636 -0.22272,0.222724 -0.44545,0.44545 -0.66817,0.668173 -0.0891,0.08909 -0.16648,0.191675 -0.26727,0.267269 -0.15937,0.119529 -0.37517,0.147744 -0.53454,0.267272 -0.10079,0.07559 -0.17818,0.178178 -0.26727,0.267269 -0.0445,0.04454 -0.0739,0.113712 -0.13364,0.133635 -0.0845,0.02817 -0.18275,-0.02817 -0.26726,0 -0.0598,0.01992 -0.0891,0.08909 -0.13364,0.133634 -0.13363,0.133635 -0.29607,0.243657 -0.40091,0.400904 -0.0247,0.03706 0.0199,0.09379 0,0.133636 -0.30579,0.611592 0.0554,-0.567068 -0.26726,0.400904 -0.0282,0.08452 0.0398,0.187585 0,0.267269 -0.0282,0.05635 -0.10546,0.07729 -0.13364,0.133633 -0.015,0.02995 0,0.502786 0,0.534541 0,0.311814 0,0.623628 0,0.935442 0,0.08909 -0.0282,0.182753 0,0.267272 0.0315,0.09449 0.10214,0.172775 0.13364,0.267268 0.0246,0.07368 -0.0286,0.505968 0,0.534538 0.0315,0.0315 0.10213,-0.0315 0.13363,0 0.0315,0.0315 -0.0199,0.0938 0,0.133636 0.0282,0.05635 0.10546,0.07729 0.13363,0.133636 0.0199,0.03984 -0.0141,0.09137 0,0.133633 0.0315,0.0945 0.10214,0.172775 0.13364,0.267271 0.0141,0.04226 -0.0141,0.09137 0,0.133633 0.063,0.18899 0.17818,0.35636 0.26727,0.534541 0.0445,0.08909 0.0784,0.18439 0.13364,0.267269 0.20386,0.305797 0.10578,-0.08356 0.26726,0.400904 0.0141,0.04226 0,0.08909 0,0.133633 0.0445,0.133636 0.0813,0.270116 0.13364,0.400905 0.074,0.184962 0.21895,0.341278 0.26727,0.53454 0.0216,0.08643 -0.0282,0.182751 0,0.267269 0.16513,0.495398 0.13363,-0.162893 0.13363,0.267269"
       id="path4830"
       inkscape:connector-curvature="0" />
    <path
       style="fill:none;stroke:#000000;stroke-width:0.565;stroke-linecap:round;stroke-linejoin:round;stroke-miterlimit:4;stroke-dasharray:none;stroke-opacity:1"
       d="m 107.97689,108.17408 c 0.60317,3.10514 1.142,6.19741 0,8.95352"
       id="path4832"
       inkscape:connector-curvature="0"
       sodipodi:nodetypes="cc" />
    <path
       style="fill:none;stroke:#000000;stroke-width:0.56500006;stroke-linecap:round;stroke-linejoin:round;stroke-miterlimit:4;stroke-dasharray:none;stroke-opacity:1"
       d="m 120.98034,108.11275 c -0.60317,3.10514 -1.142,6.19741 0,8.95352"
       id="path4832-0"
       inkscape:connector-curvature="0"
       sodipodi:nodetypes="cc" />
    <path
       style="fill:none;stroke:#963c0a;stroke-width:1.06500006;stroke-linecap:butt;stroke-linejoin:miter;stroke-miterlimit:4;stroke-dasharray:none;stroke-opacity:1"
       d="m 104.63602,106.43683 c -0.26727,-0.0891 -0.53455,-0.17819 -0.80181,-0.26727 -0.13364,-0.0891 -0.25328,-0.20401 -0.40091,-0.26727 -0.16881,-0.0724 -0.36572,-0.0613 -0.53454,-0.13364 -0.004,-0.002 -0.78899,-0.52685 -0.80181,-0.53454 -0.58383,-0.3503 0.0967,0.11519 -0.66817,-0.26727 -0.0563,-0.0282 -0.0891,-0.0891 -0.13363,-0.13363 -0.0891,-0.0891 -0.16244,-0.19738 -0.26727,-0.26727 -0.0371,-0.0247 -0.10214,0.0315 -0.13364,0 -0.063,-0.063 0.0398,-0.18759 0,-0.26727 -0.0718,-0.14365 -0.18758,-0.26146 -0.26727,-0.4009 -0.0988,-0.17297 -0.17052,-0.3604 -0.26727,-0.53455 -0.12614,-0.22705 -0.27476,-0.44111 -0.400897,-0.66817 -0.19349,-0.34828 -0.35636,-0.71272 -0.53454,-1.06908 -0.0891,-0.17818 -0.16169,-0.3656 -0.26727,-0.53453 -0.11804,-0.18887 -0.3013,-0.33533 -0.40091,-0.53454 -0.0821,-0.16428 -0.0691,-0.36257 -0.13363,-0.53454 -0.07,-0.186531 -0.19732,-0.348014 -0.26727,-0.534542 -0.16948,-0.451946 -0.13363,-0.868194 -0.13363,-1.336347 0,-0.322025 -0.0571,-0.515782 0.13363,-0.80181 0.0699,-0.10483 0.19738,-0.162438 0.26727,-0.267268 0.29442,-0.0673 0.0706,-0.274913 0.13363,-0.400905 0.0282,-0.05635 0.0891,-0.08909 0.13364,-0.133636 0.17818,-0.178178 0.35636,-0.356359 0.53454,-0.534537 0.22272,-0.222724 0.46653,-0.426199 0.668167,-0.668174 0.10282,-0.123383 0.16445,-0.277521 0.26727,-0.400904 0.24198,-0.29037 0.58212,-0.494237 0.80181,-0.80181 0.88576,-1.771517 -0.33922,0.457431 0.66818,-0.801809 0.088,-0.109995 0.0612,-0.280114 0.13363,-0.400902 0.0648,-0.108037 0.19738,-0.162438 0.26727,-0.267271 0.0247,-0.03706 -0.0315,-0.102137 0,-0.133633 0.0315,-0.0315 0.10214,0.0315 0.13363,0 0.0315,-0.0315 -0.0315,-0.102138 0,-0.133636 0.0315,-0.0315 0.0914,0.01408 0.13364,0 0.0945,-0.0315 0.17277,-0.102137 0.26727,-0.133636 0.0845,-0.02817 0.18758,0.03984 0.26727,0 0.0563,-0.02817 0.0891,-0.08909 0.13363,-0.133633 0.0445,-0.04454 0.10547,-0.07729 0.13364,-0.133636 0.0285,-0.05707 0,-0.615347 0,-0.668173 0,-0.13357 0.0286,-0.553845 0,-0.668174 -0.12536,-0.501435 -0.17144,-0.40001 -0.40091,-0.935445 -0.0555,-0.129473 -0.0612,-0.280114 -0.13363,-0.400902 -0.0648,-0.108037 -0.19738,-0.162438 -0.26727,-0.267271 -0.1105,-0.165754 -0.16843,-0.361574 -0.26727,-0.534538 -0.32973,-0.577032 -0.79742,-1.082532 -1.20271,-1.603618 -0.007,-0.0089 -0.80082,-1.068086 -0.80181,-1.069078 -0.15749,-0.157491 -0.377047,-0.243414 -0.534537,-0.400905 -0.11357,-0.113567 -0.16694,-0.275489 -0.26727,-0.400902 -0.0787,-0.09839 -0.18856,-0.168889 -0.26727,-0.267271 -0.24252,-0.156242 -0.24506,-0.460383 -0.40091,-0.668174 -0.15119,-0.201586 -0.38334,-0.332951 -0.53453,-0.534537 -0.0598,-0.07968 -0.0891,-0.178181 -0.13364,-0.267272 -0.13363,-0.267269 -0.26727,-0.534538 -0.4009,-0.801806 -0.0891,-0.178181 -0.16478,-0.363718 -0.26727,-0.534541 -0.0826,-0.137721 -0.19544,-0.257252 -0.26727,-0.400904 -0.063,-0.125992 -0.0891,-0.267269 -0.13364,-0.400905 -0.0445,-0.133633 -0.0891,-0.267269 -0.13363,-0.400905 -0.0446,-0.133633 -0.0891,-0.267268 -0.13364,-0.400902 -0.0445,-0.133635 -0.11047,-0.261958 -0.13363,-0.400904 -0.022,-0.131818 0.0166,-0.268304 0,-0.400905 -0.0282,-0.225382 -0.10151,-0.443322 -0.13363,-0.668173 -0.0126,-0.0882 0,-0.178181 0,-0.267272 0,-0.311814 0,-0.623628 0,-0.935442 0,-0.267269 0,-0.534538 0,-0.801809 0,-0.08909 -0.0175,-0.179909 0,-0.267269 0.0445,-0.133636 0.0891,-0.267269 0.13363,-0.400905 0.0445,-0.04454 0.11371,-0.07387 0.13363,-0.133635 0.0282,-0.08452 -0.0216,-0.180838 0,-0.267269 0.0809,-0.323467 0.20123,-0.268296 0.40091,-0.534538 0.0598,-0.07968 0.0739,-0.187587 0.13363,-0.267271 0.0756,-0.100793 0.17818,-0.178179 0.26727,-0.267269 0.0891,-0.08909 0.17818,-0.178179 0.26727,-0.267269 0.17818,-0.178181 0.35636,-0.356359 0.53454,-0.53454 0.0891,-0.08909 0.16889,-0.188561 0.26727,-0.267269 0.82824,-0.662594 0.0436,0.01545 0.66817,-0.400905 0.24452,-0.16301 0.0133,-0.170376 0.40091,-0.267269 0.0864,-0.02162 0.18275,0.02817 0.26727,0 0.0598,-0.01992 0.0773,-0.105463 0.133627,-0.133636 0.0399,-0.01992 0.13364,-0.04454 0.13364,0 0,0.04455 -0.16513,0.0315 -0.13364,0 0.0704,-0.07043 0.19684,-0.0632 0.26727,-0.133633 0.063,-0.063 -0.0398,-0.187587 0,-0.267268 0.0282,-0.05635 0.11372,-0.07387 0.13364,-0.133636 0.0282,-0.08452 -0.0175,-0.179909 0,-0.267269 0.0276,-0.138128 0.0891,-0.267272 0.13363,-0.400905 0,-0.178181 -0.0252,-0.35815 0,-0.53454 0.0199,-0.139446 0.11372,-0.261456 0.13364,-0.400905 0.0504,-0.352777 -0.0442,-0.71547 0,-1.069078 0.0228,-0.182245 0.11536,-0.351787 0.13363,-0.534537 0.0266,-0.265944 0,-0.534541 0,-0.80181 0,-0.489995 0,-0.979987 0,-1.469982 0,-0.579083 0,-1.158169 0,-1.737252 0,-0.178178 0.0252,-0.35815 0,-0.534537 -0.0199,-0.139449 -0.11808,-0.260903 -0.13363,-0.400905 -0.0295,-0.265636 0,-0.53454 0,-0.801809 0,-0.400905 0,-0.801809 0,-1.202714 0,-0.623628 0,-1.247256 0,-1.870887 0,-0.222724 -0.0246,-0.44681 0,-0.668174 0.0203,-0.182538 0.11085,-0.352292 0.13363,-0.534537 0.0221,-0.176806 0,-0.35636 0,-0.534541 0,-0.178178 0,-0.356359 0,-0.534537 0,-0.133636 -0.0262,-0.269865 0,-0.400905 0.0195,-0.09767 0.1141,-0.169598 0.13364,-0.267269 0.0262,-0.13104 -0.0324,-0.271261 0,-0.400905 0.0306,-0.122229 0.21092,-0.15458 0.26727,-0.267268 0.0199,-0.03984 -0.0199,-0.0938 0,-0.133636 0.0322,-0.06441 0.53087,-0.531789 0.53454,-0.53454 0.0797,-0.05976 0.17817,-0.08909 0.26726,-0.133634 0.26323,-0.131611 0.52868,-0.29165 0.80181,-0.400904 0.13079,-0.05232 0.27012,-0.08132 0.40091,-0.133636 0.0925,-0.03699 0.1696,-0.114099 0.26727,-0.133633 0.13104,-0.02622 0.26908,0.02196 0.4009,0 0.13895,-0.02315 0.26727,-0.08909 0.40091,-0.133636 0.17817,-0.04454 0.35272,-0.107661 0.53453,-0.133636 0.1323,-0.01889 0.26862,0.01889 0.40091,0 0.18182,-0.02598 0.35272,-0.107658 0.53454,-0.133633 0.26458,-0.0378 0.53973,0.05241 0.80181,0 0.0977,-0.01953 0.17063,-0.109476 0.26727,-0.133635 0.12964,-0.03241 0.26727,0 0.4009,0 0.0445,0 0.10214,-0.0315 0.13363,0 0.0704,0.07043 0.0714,0.189492 0.13364,0.267268 0.29325,0.36657 0.91951,0.754023 1.06908,1.202714 0.17818,0.534541 -0.22273,-0.222723 0.13363,0.133636 0.0315,0.0315 -0.0445,0.133633 0,0.133633 0.063,0 0.0796,-0.101222 0.13364,-0.133633 0.17082,-0.102494 0.34957,-0.193286 0.53454,-0.267271 0.52315,-0.209262 1.08572,-0.312585 1.60361,-0.534538 0.36621,-0.156946 0.70287,-0.377592 1.06908,-0.534541 2.75725,-1.181676 -2.01468,1.136185 2.13816,-0.801806 0.23537,-0.109842 0.44112,-0.274765 0.66817,-0.400905 0.17414,-0.09674 0.35636,-0.178181 0.53454,-0.267271 0.17818,-0.08909 0.35144,-0.188796 0.53454,-0.267269 0.38708,-0.165891 0.81563,-0.235014 1.20271,-0.400905 0.18311,-0.07847 0.35636,-0.178178 0.53454,-0.267268 0.0891,-0.04455 0.1715,-0.10627 0.26727,-0.133636 1.04699,-0.299138 0.28094,-0.03121 1.20271,-0.133633 0.22575,-0.02508 0.4428,-0.105463 0.66818,-0.133636 0.1326,-0.01656 0.26809,0.01476 0.4009,0 0.47002,0.03549 0.88664,-0.203025 1.33635,-0.267269 0.30868,-0.0441 0.62604,0.03868 0.93544,0 0.18225,-0.02278 0.3523,-0.110855 0.53454,-0.133636 0.17681,-0.02209 0.35725,0.01773 0.53454,0 0.26961,-0.02696 0.5322,-0.106672 0.80181,-0.133633 0.1773,-0.01773 0.35636,0 0.53454,0 0.26727,0 0.53454,0 0.80181,0 0.57908,0 1.15817,0 1.73725,0 0.0923,0 0.49391,-0.02032 0.53454,0 0.11269,0.05635 0.16244,0.197382 0.26727,0.267269 0.0829,0.05525 0.18439,0.07838 0.26727,0.133636 0.10483,0.06989 0.17818,0.178178 0.26727,0.267269 0.0176,0.01759 0.65593,0.63146 0.66817,0.668173 0.0282,0.08452 -0.0216,0.18084 0,0.267269 0.0242,0.09663 0.0891,0.178181 0.13363,0.267269 0.13364,0.267271 0.26727,0.53454 0.40091,0.801809 0.0445,0.08909 0.10948,0.170638 0.13364,0.267269 0.0432,0.17286 -0.0432,0.36168 0,0.53454 0.0242,0.09663 0.10947,0.170638 0.13363,0.267269 0.0216,0.08643 0,0.178181 0,0.267272 0,0.08909 0,0.178178 0,0.267268 0,0.267269 0,0.534538 0,0.80181 0,0.267268 0,0.534537 0,0.801806 0,0.133636 0.0324,0.271262 0,0.400905 -0.0153,0.06112 -0.10546,0.07729 -0.13363,0.133636 -0.0199,0.03984 0.0199,0.09379 0,0.133633 -0.0282,0.05634 -0.11372,0.07387 -0.13364,0.133635 -0.0282,0.08452 0,0.178181 0,0.267269 0,0.04454 0.0199,0.09379 0,0.133636 -0.0564,0.112691 -0.21092,0.154577 -0.26727,0.267269 -0.0199,0.03984 0.0199,0.09379 0,0.133636 -0.0563,0.112691 -0.21092,0.154577 -0.26727,0.267268 -0.0199,0.03984 0.0199,0.09379 0,0.133636 -0.0282,0.05635 -0.0987,0.08122 -0.13363,0.133633 -0.0553,0.08288 -0.0784,0.184394 -0.13364,0.267272 -0.0699,0.10483 -0.21092,0.154577 -0.26727,0.267269 -0.0199,0.03984 0.0315,0.102137 0,0.133633 -0.0315,0.0315 -0.10214,-0.0315 -0.13363,0 -0.0614,0.0614 0.0695,0.30467 0.13363,0.400904 0.035,0.05242 0.0891,0.08909 0.13364,0.133636 0.17818,0.178178 0.35636,0.356359 0.53453,0.534538 0.22273,0.222726 0.44545,0.44545 0.66818,0.668176 0.13363,0.133633 0.25572,0.279916 0.4009,0.400904 0.12339,0.102818 0.27549,0.166937 0.40091,0.267269 0.0984,0.07871 0.16888,0.188564 0.26727,0.267269 0.12541,0.100333 0.27549,0.166939 0.4009,0.267269 0.0984,0.07871 0.17818,0.178181 0.26727,0.267272 0.13364,0.08909 0.27242,0.170902 0.4009,0.267268 0.0504,0.0378 0.0812,0.09869 0.13364,0.133633 0.16575,0.110504 0.37517,0.147744 0.53454,0.267272 0.10079,0.07559 0.15923,0.202446 0.26727,0.267269 0.12079,0.07247 0.27491,0.07064 0.4009,0.133636 0.0563,0.02817 0.0891,0.08909 0.13364,0.133633 0.0891,0.08909 0.16647,0.191674 0.26727,0.267269 0.0797,0.05976 0.18949,0.07141 0.26727,0.133635 0.14757,0.11806 0.26727,0.267269 0.4009,0.400905 0.0891,0.08909 0.18857,0.168886 0.26727,0.267269 0.10033,0.125415 0.16694,0.275489 0.26727,0.400904 0.0787,0.09838 0.18856,0.168886 0.26727,0.267269 0.20066,0.25083 0.33388,0.550982 0.53454,0.801809 0.0787,0.09838 0.18856,0.168887 0.26727,0.267269 0.10033,0.125415 0.17818,0.267272 0.26727,0.400905 0.0891,0.133636 0.204,0.253283 0.26727,0.400904 0.0724,0.168815 0.0756,0.360302 0.13363,0.534541 0.063,0.188986 0.20428,0.345551 0.26727,0.534537 0.0473,0.142002 -0.0473,0.392539 0,0.534541 0.0315,0.09449 0.10214,0.172775 0.13364,0.267269 0.0282,0.08452 0,0.178178 0,0.267269 0,0.08909 0,0.178181 0,0.267268 0,0.08909 0.0216,0.18084 0,0.267272 -0.0242,0.09663 -0.0891,0.178178 -0.13364,0.267269 -0.0891,0.178178 -0.17818,0.356359 -0.26727,0.534537 -0.0445,0.08909 -0.0966,0.174789 -0.13363,0.267272 -0.0348,0.08698 -0.16281,0.563708 -0.26727,0.668173 -0.0704,0.07043 -0.19684,0.0632 -0.26727,0.133633 -0.0704,0.07043 -0.0739,0.187587 -0.13364,0.267272 -0.289,0.385339 -0.19307,0.173262 -0.53454,0.400905 -0.10483,0.06989 -0.16243,0.197381 -0.26726,0.267268 -0.96894,0.484466 0.21129,-0.140864 -0.40091,0.267269 -0.15272,0.101817 -0.51294,0.236223 -0.66817,0.267269 -0.0874,0.01746 -0.18455,-0.03309 -0.26727,0 -0.14912,0.05965 -0.25725,0.195445 -0.40091,0.267272 -0.12599,0.06299 -0.27491,0.07064 -0.4009,0.133633 -0.40753,0.203763 0.24441,0.105942 -0.40091,0.267269 -0.75726,0 -0.0445,-0.08909 -0.26726,0.133635 -0.063,0.063 -0.19315,-0.04942 -0.26728,0 -0.10483,0.06989 -0.17817,0.178181 -0.26726,0.267269 -0.0446,0.04454 -0.0739,0.113715 -0.13364,0.133636 -0.0845,0.02817 -0.18275,-0.02817 -0.26727,0 -0.11952,0.03984 -0.16244,0.197382 -0.26727,0.267269 -0.0829,0.05525 -0.18439,0.07839 -0.26727,0.133636 -0.0524,0.03494 -0.0891,0.08909 -0.13363,0.133633 -0.0445,0.04454 -0.10547,0.07729 -0.13364,0.133635 -0.0199,0.03984 0.0199,0.09379 0,0.133636 -0.0282,0.05635 -0.10546,0.07729 -0.13363,0.133633 -0.0199,0.03984 0.0199,0.0938 0,0.133636 -0.0282,0.05635 -0.10546,0.07729 -0.13364,0.133636 -0.0199,0.03984 0.0108,0.09042 0,0.133633 -0.0342,0.136657 -0.106,0.262776 -0.13363,0.400904 -0.0175,0.08736 0,0.178181 0,0.267269 0,0.267272 0,0.534541 0,0.801809 0,0.400905 0,0.80181 0,1.202714 0,0.08909 -0.0175,0.179909 0,0.267269 0.0276,0.138128 0.11048,0.261959 0.13363,0.400905 0.022,0.131815 -0.022,0.269086 0,0.400904 0.0231,0.138946 0.0891,0.267269 0.13364,0.400905 0.0891,0.267269 0.16264,0.540231 0.26727,0.801806 0.037,0.09248 0.0966,0.174789 0.13363,0.267272 0.0523,0.130789 0.0813,0.270116 0.13364,0.400905 0.037,0.09248 0.1141,0.169597 0.13363,0.267268 0.0262,0.131041 -0.022,0.269087 0,0.400905 0.0232,0.138946 0.10601,0.262776 0.13364,0.400905 0.0175,0.08736 -0.0175,0.179908 0,0.267268 0.0553,0.276257 0.21202,0.525553 0.26727,0.80181 0.0175,0.08736 -0.0175,0.179908 0,0.267268 0.0276,0.138129 0.0891,0.267269 0.13363,0.400905 0.0888,0.266271 0.23371,0.666964 0.26727,0.935442 0.0221,0.176806 -0.0252,0.358151 0,0.534541 0.0199,0.139446 0.0891,0.267269 0.13363,0.400904 0.0446,0.222724 0.10547,0.442791 0.13364,0.668174 0.0166,0.132601 -0.022,0.269086 0,0.400904 0.0463,0.277892 0.22743,0.522912 0.26727,0.801807 0.0252,0.17639 -0.0252,0.358151 0,0.53454 0.0199,0.139446 0.11048,0.261956 0.13363,0.400905 0.022,0.131815 -0.022,0.269086 0,0.400904 0.31867,0.955985 -0.002,-0.146285 0.13364,0.801807 0.052,0.363635 0.21532,0.705445 0.26727,1.069078 0.0378,0.264583 -0.0524,0.539732 0,0.801809 0.0195,0.09767 0.10948,0.170638 0.13363,0.267269 0.0303,0.121148 0,0.512935 0,0.668176 0,0.09228 0.0203,0.493909 0,0.534538 -0.0282,0.05635 -0.0987,0.08122 -0.13363,0.133636 -0.0553,0.08288 -0.0891,0.178178 -0.13364,0.267269 -0.0891,0.178178 -0.17817,0.356359 -0.26727,0.534537 -0.0445,0.08909 -0.0739,0.187587 -0.13363,0.267272 -0.28901,0.385339 -0.19308,0.173262 -0.53454,0.400904 -0.18532,0.123545 -0.34922,0.277358 -0.53454,0.400902 -0.0829,0.05525 -0.17818,0.08909 -0.26727,0.133636 -0.0891,0.04454 -0.17479,0.09664 -0.26727,0.133636 -0.26157,0.104629 -0.54023,0.162639 -0.80181,0.267269 -0.0185,0.0074 -0.52823,0.266009 -0.53454,0.267268 -0.13103,0.02622 -0.27125,-0.03241 -0.4009,0 -0.0611,0.01527 -0.0725,0.118357 -0.13363,0.133636 -0.21608,0.05402 -0.4521,-0.05402 -0.66818,0 -0.0966,0.02416 -0.17064,0.109477 -0.26727,0.133633 -0.17286,0.04322 -0.36168,-0.04321 -0.53454,0 -0.0966,0.02416 -0.17277,0.102137 -0.26727,0.133636 -0.0423,0.01408 -0.0914,-0.01408 -0.13363,0 -0.0945,0.0315 -0.17278,0.102137 -0.26727,0.133636 -0.0423,0.01408 -0.10214,-0.0315 -0.13364,0 -0.0315,0.0315 0,0.08909 0,0.133633 0,0.04454 0,0.08909 0,0.133636 0,0.08909 -0.0216,0.18084 0,0.267269 0.0242,0.09663 0.0967,0.174789 0.13364,0.267268 0.1976,0.494015 0.0405,0.351267 0.4009,0.80181 0.0787,0.09838 0.19168,0.166475 0.26727,0.267271 0.0598,0.07968 0.0891,0.178178 0.13364,0.267271 0.0445,0.0891 0.10214,0.17277 0.13363,0.26727 0.0282,0.0845 -0.0282,0.18275 0,0.26727 0.0315,0.0945 0.10214,0.17277 0.13364,0.26727 0.0141,0.0423 -0.0141,0.0914 0,0.13363 0.063,0.18899 0.21895,0.34128 0.26727,0.53454 0.0216,0.0864 -0.0216,0.18084 0,0.26727 0.0241,0.0966 0.1141,0.1696 0.13363,0.26727 0.0262,0.13104 -0.0262,0.26986 0,0.4009 0.0195,0.0977 0.1141,0.1696 0.13364,0.26727 0,1.01945 -0.0598,-0.10542 0.13363,0.66817 0.0216,0.0864 0,0.17819 0,0.26728 0,0.31181 0,0.62362 0,0.93544 0,0.35636 0,0.71272 0,1.06908 0,0.0602 0.0204,0.36023 0,0.4009 -0.0282,0.0563 -0.0891,0.0891 -0.13363,0.13364 -0.20222,0.20221 -0.39136,0.42381 -0.66818,0.53453 -0.0827,0.0331 -0.17818,0 -0.26727,0 -0.0891,0.0445 -0.17817,0.0891 -0.26727,0.13364 -0.17818,0.0891 -0.36878,0.15677 -0.53454,0.26727 -0.0524,0.0349 -0.0739,0.11371 -0.13363,0.13363 -0.0845,0.0282 -0.18275,-0.0282 -0.26727,0 -0.0598,0.0199 -0.0773,0.10547 -0.13363,0.13364 -0.0399,0.0199 -0.0914,-0.0141 -0.13364,0 -0.0945,0.0315 -0.17277,0.10214 -0.26727,0.13363 -0.0423,0.0141 -0.0938,-0.0199 -0.13363,0 -0.0564,0.0282 -0.0773,0.10547 -0.13364,0.13364 -0.0398,0.0199 -0.0914,-0.0141 -0.13363,0 -0.0945,0.0315 -0.17064,0.10948 -0.26727,0.13363 -0.17286,0.0432 -0.35982,-0.0349 -0.53454,0 -0.13813,0.0276 -0.26278,0.10601 -0.40091,0.13364 -0.21839,0.0437 -0.44848,-0.0366 -0.66817,0 -0.13895,0.0232 -0.26196,0.11048 -0.4009,0.13363 -0.13182,0.022 -0.26727,0 -0.40091,0 -0.26727,0 -0.53454,0 -0.80181,0 -0.66817,0 -1.33635,0 -2.00452,0 -0.62363,0 -1.24726,0 -1.87088,0 -0.0445,0 -0.0891,0 -0.13364,0 -0.0445,0 -0.10214,-0.0315 -0.13363,0 -0.0414,0.0414 0.0414,0.6268 0,0.66818 -0.0315,0.0315 -0.10214,-0.0315 -0.13364,0 -0.0315,0.0315 0.0315,0.10213 0,0.13363 -0.0315,0.0315 -0.0938,-0.0199 -0.13363,0 -0.0564,0.0282 -0.0773,0.10546 -0.13364,0.13364 -0.0686,0.0343 -0.55877,-0.0219 -0.66817,0 -0.13813,0.0276 -0.26196,0.11047 -0.40091,0.13363 -0.13181,0.022 -0.26727,0 -0.4009,0 -0.13364,0 -0.26727,0 -0.4009,0 -0.62363,0 -1.24726,0 -1.87089,0 -0.13364,0 -0.26727,0 -0.40091,0 -0.0445,0 -0.10213,0.0315 -0.13363,0 -0.0315,-0.0315 0.0315,-0.10213 0,-0.13363 -0.0315,-0.0315 -0.0938,0.0199 -0.13363,0 -0.0564,-0.0282 -0.0812,-0.0987 -0.13364,-0.13364 -0.23505,-0.1567 -0.39652,-0.15861 -0.66817,-0.26727 -0.0925,-0.037 -0.17479,-0.0966 -0.26727,-0.13363 -0.13079,-0.0523 -0.27012,-0.0813 -0.40091,-0.13364 -0.0925,-0.037 -0.17277,-0.10213 -0.26727,-0.13363 -0.112,-0.0373 -0.44597,0.0443 -0.53454,0 -0.0563,-0.0282 -0.0739,-0.11372 -0.13363,-0.13364 -0.12874,-0.0429 -0.63944,0.0271 -0.80181,0 -0.99627,-0.16604 -0.10924,-0.13363 -0.93544,-0.13363 -0.0137,0 -1.04948,0.01 -1.06908,0 -0.0398,-0.0199 0.0315,-0.10214 0,-0.13364 -8e-4,-7.9e-4 -0.39644,0.001 -0.40091,0 -0.87244,-0.21811 0.5049,-0.0718 -0.66817,-0.26727 -0.26363,-0.0439 -0.54252,0.0648 -0.80181,0 -0.0611,-0.0153 -0.0773,-0.10546 -0.13363,-0.13363 -0.0399,-0.0199 -0.0914,0.0141 -0.13364,0 -0.0945,-0.0315 -0.17818,-0.0891 -0.26727,-0.13364 -0.0891,-0.0445 -0.19683,-0.0632 -0.26727,-0.13363 -0.0315,-0.0315 0.0199,-0.0938 0,-0.13364 -0.27808,-0.55615 0.009,0.14287 -0.26727,-0.13363 -0.0315,-0.0315 0,-0.0891 0,-0.13364 -0.17818,-0.0891 -0.35636,-0.17817 -0.53453,-0.26726 z"
       id="path4812"
       inkscape:connector-curvature="0" />
  </g>
</svg>
