<?xml version="1.0" encoding="UTF-8" standalone="no"?>
<!-- Created with Inkscape (http://www.inkscape.org/) -->

<svg
   xmlns:dc="http://purl.org/dc/elements/1.1/"
   xmlns:cc="http://creativecommons.org/ns#"
   xmlns:rdf="http://www.w3.org/1999/02/22-rdf-syntax-ns#"
   xmlns:svg="http://www.w3.org/2000/svg"
   xmlns="http://www.w3.org/2000/svg"
   xmlns:sodipodi="http://sodipodi.sourceforge.net/DTD/sodipodi-0.dtd"
   xmlns:inkscape="http://www.inkscape.org/namespaces/inkscape"
   width="154.38693mm"
   height="50.633835mm"
   viewBox="0 0 154.38693 50.633835"
   version="1.1"
   id="svg8"
   inkscape:version="0.92.3 (2405546, 2018-03-11)"
   sodipodi:docname="lavbal.svg">
  <defs
     id="defs2" />
  <sodipodi:namedview
     id="base"
     pagecolor="#ffffff"
     bordercolor="#666666"
     borderopacity="1.0"
     inkscape:pageopacity="0.0"
     inkscape:pageshadow="2"
     inkscape:zoom="1.979899"
     inkscape:cx="305.64596"
     inkscape:cy="32.157139"
     inkscape:document-units="mm"
     inkscape:current-layer="layer1"
     showgrid="false"
     inkscape:window-width="2493"
     inkscape:window-height="1385"
     inkscape:window-x="67"
     inkscape:window-y="27"
     inkscape:window-maximized="1"
     fit-margin-top="0"
     fit-margin-left="0"
     fit-margin-right="0"
     fit-margin-bottom="0" />
  <metadata
     id="metadata5">
    <rdf:RDF>
      <cc:Work
         rdf:about="">
        <dc:format>image/svg+xml</dc:format>
        <dc:type
           rdf:resource="http://purl.org/dc/dcmitype/StillImage" />
        <dc:title></dc:title>
      </cc:Work>
    </rdf:RDF>
  </metadata>
  <g
     inkscape:label="Layer 1"
     inkscape:groupmode="layer"
     id="layer1"
     transform="translate(-36.894982,-43.073665)">
    <path
       style="fill:none;stroke:#000000;stroke-width:1;stroke-linecap:butt;stroke-linejoin:miter;stroke-miterlimit:4;stroke-dasharray:none;stroke-opacity:1"
       d="m 37.041666,44.88988 c 3.939014,1.208764 6.921782,0.265972 10.205358,0 4.88802,-1.010296 8.66939,0.731512 13.715883,0.513578 0.01024,0.01024 2.109758,0.418617 10.096616,-0.891554 9.099353,-1.492665 19.276785,-0.75725 19.276785,-0.755952 4.799543,0.216449 9.339026,1.279895 13.807592,2.021549 6.99517,0.759779 12.10299,1.145496 18.01119,-0.883688 5.67132,-0.52764 8.11186,-0.389154 13.16038,1.129997 4.47096,0.7712 5.64912,0.404818 10.36193,-1.599684 3.24543,-0.508509 4.97294,-0.993707 9.29284,0.465754"
       id="path1088"
       inkscape:connector-curvature="0"
       sodipodi:nodetypes="cccscccccc" />
    <path
       style="fill:none;stroke:#000000;stroke-width:1;stroke-linecap:butt;stroke-linejoin:miter;stroke-miterlimit:4;stroke-dasharray:none;stroke-opacity:1"
       d="m 38.175594,52.449404 c 4.203345,0.541592 8.046923,0.123804 11.717263,-0.755952 5.039683,-0.572055 10.079365,0.323488 15.119048,1.133928 4.157447,0.251112 8.093984,-0.160505 11.717261,-1.511904 5.908674,-0.460792 11.236767,-1.191293 16.630951,0.06288 3.16658,1.251367 7.266493,1.752942 10.274143,1.891851 0.0167,0.08363 7.7687,1.206382 11.78408,0.494583 4.09391,-0.725721 14.98344,-0.937411 14.98344,-0.937411 3.46837,-0.230451 5.60393,-1.483602 8.85002,-0.271204 3.58773,0.663252 6.26118,0.183658 8.42618,-0.931509 3.25545,-0.64141 5.83744,-0.734793 7.82876,0.400904"
       id="path1092"
       inkscape:connector-curvature="0"
       sodipodi:nodetypes="ccccccscccc" />
    <path
       style="fill:none;stroke:#000000;stroke-width:1;stroke-linecap:round;stroke-linejoin:miter;stroke-miterlimit:4;stroke-dasharray:none;stroke-opacity:1"
       d="m 43.46726,61.520831 c 0.819085,3.974304 2.51312,6.835036 5.291667,8.315479 0.395815,0.692676 7.400853,-0.183182 7.559524,0 9.944353,-0.720071 0.998072,5.780397 3.004817,13.316944 2.634027,7.396084 5.109626,2.616902 9.090422,-0.08778 1.734862,-1.698579 2.736178,-1.746679 3.779761,-1.889882"
       id="path1094"
       inkscape:connector-curvature="0"
       sodipodi:nodetypes="cccccc" />
    <path
       style="fill:none;stroke:#000000;stroke-width:1;stroke-linecap:round;stroke-linejoin:miter;stroke-miterlimit:4;stroke-dasharray:none;stroke-opacity:1"
       d="m 76.729166,51.315476 c -2.927742,2.549386 -5.25057,5.31654 -3.779761,9.449404 0.51264,3.452066 4.375493,5.468325 7.181546,7.9375 0,0 5.240923,4.648117 -0.755952,3.779763 -6.207216,-0.898811 -14.743852,1.489665 -14.741072,1.511903"
       id="path1096"
       inkscape:connector-curvature="0"
       sodipodi:nodetypes="cccsc" />
    <path
       style="fill:none;stroke:#000000;stroke-width:1;stroke-linecap:round;stroke-linejoin:miter;stroke-miterlimit:4;stroke-dasharray:none;stroke-opacity:1"
       d="m 55.184523,60.008928 c 4.665339,3.619774 7.632501,8.407044 9.449404,13.985118 v 0 c -6.070466,5.154328 -14.340878,6.416442 -22.67857,7.559524"
       id="path1098"
       inkscape:connector-curvature="0"
       sodipodi:nodetypes="cccc" />
    <path
       style="fill:none;stroke:#000000;stroke-width:1;stroke-linecap:round;stroke-linejoin:miter;stroke-miterlimit:4;stroke-dasharray:none;stroke-opacity:1"
       d="m 89.580356,61.89881 c 5.032774,-0.680407 10.052413,0.332663 12.074274,6.736753 0.90255,4.017187 -1.855585,4.22939 -3.357894,7.338111 -8.906579,13.365626 6.740434,2.418119 12.072314,2.178111"
       id="path1100"
       inkscape:connector-curvature="0"
       sodipodi:nodetypes="cccc" />
    <path
       style="fill:none;stroke:#000000;stroke-width:1;stroke-linecap:round;stroke-linejoin:miter;stroke-miterlimit:4;stroke-dasharray:none;stroke-opacity:1"
       d="m 115.66071,60.386904 c -2.03346,4.065931 0.83909,6.963767 2.26786,10.205357 2.97823,6.065998 5.69154,4.184725 8.31548,-0.377976 4.23226,-5.473635 3.62909,-2.001713 0.75595,5.669643"
       id="path1102"
       inkscape:connector-curvature="0"
       sodipodi:nodetypes="cccc" />
    <path
       style="fill:none;stroke:#000000;stroke-width:1;stroke-linecap:round;stroke-linejoin:miter;stroke-miterlimit:4;stroke-dasharray:none;stroke-opacity:1"
       d="m 129.64583,61.142855 c 4.58193,-2.528647 7.45117,-1.482982 7.9375,4.535715"
       id="path1104"
       inkscape:connector-curvature="0"
       sodipodi:nodetypes="cc" />
    <path
       style="fill:none;stroke:#000000;stroke-width:1;stroke-linecap:round;stroke-linejoin:miter;stroke-miterlimit:4;stroke-dasharray:none;stroke-opacity:1"
       d="m 127,75.883928 c -6.21123,16.531109 4.86657,3.670877 12.09524,-2.645834"
       id="path1106"
       inkscape:connector-curvature="0"
       sodipodi:nodetypes="cc" />
    <path
       style="fill:none;stroke:#000000;stroke-width:1;stroke-linecap:round;stroke-linejoin:miter;stroke-miterlimit:4;stroke-dasharray:none;stroke-opacity:1"
       d="m 109.5805,70.021351 c -1.61078,-2.905647 -0.25369,-5.028091 2.20498,-4.142676 2.9877,0.786615 4.62107,2.342507 7.75082,-0.334087 2.01603,-1.474287 3.37979,-3.209485 2.73951,-5.746295"
       id="path1108"
       inkscape:connector-curvature="0"
       sodipodi:nodetypes="cccc" />
    <path
       style="fill:none;stroke:#000000;stroke-width:1;stroke-linecap:round;stroke-linejoin:miter;stroke-miterlimit:4;stroke-dasharray:none;stroke-opacity:1"
       d="m 71.026876,68.016831 c 0.187521,3.069542 -2.270404,6.917156 3.474503,8.352173 l 4.142679,0.601356 c 5.033854,0.306186 7.294348,-2.771678 9.822156,-5.011303 9.474169,-9.476861 5.493061,2.92338 6.548102,8.018086"
       id="path1110"
       inkscape:connector-curvature="0"
       sodipodi:nodetypes="ccccc" />
    <path
       style="fill:none;stroke:#000000;stroke-width:1;stroke-linecap:round;stroke-linejoin:miter;stroke-miterlimit:4;stroke-dasharray:none;stroke-opacity:1"
       d="m 145.3278,58.662397 c 3.49515,0.549266 6.27559,1.484859 3.27406,5.545844 -2.20033,2.395451 -6.32984,2.370901 -4.2095,4.877668 2.87201,2.782623 6.1934,0.773923 4.74403,4.34313 -2.94716,4.957022 -4.35654,4.378045 -5.54584,3.006783"
       id="path1112"
       inkscape:connector-curvature="0"
       sodipodi:nodetypes="ccccc" />
    <path
       style="fill:none;stroke:#000000;stroke-width:1;stroke-linecap:butt;stroke-linejoin:miter;stroke-miterlimit:4;stroke-dasharray:none;stroke-opacity:1"
       d="m 152.14318,58.261493 c 0.34982,4.423306 -1.21055,7.05581 -6.54811,6.147199 -6.81811,-1.479083 -6.54558,2.581399 -8.01808,5.278572"
       id="path1114"
       inkscape:connector-curvature="0"
       sodipodi:nodetypes="ccc" />
    <path
       style="fill:none;stroke:#000000;stroke-width:1;stroke-linecap:round;stroke-linejoin:miter;stroke-miterlimit:4;stroke-dasharray:none;stroke-opacity:1"
       d="m 131.76388,69.152727 c -3.0142,10.097375 0.35698,10.071592 4.54358,8.753078"
       id="path1116"
       inkscape:connector-curvature="0"
       sodipodi:nodetypes="cc" />
    <path
       style="fill:none;stroke:#000000;stroke-width:1;stroke-linecap:butt;stroke-linejoin:miter;stroke-miterlimit:4;stroke-dasharray:none;stroke-opacity:1"
       d="m 37.551367,89.732481 c 0,0 11.091686,0.06681 11.49259,0.133633 0.400905,0.06682 14.766642,-0.467722 14.766642,-0.467722 0,0 16.920315,0.863567 18.256662,0.945517 1.336347,0.09855 13.748864,0.257197 16.020653,0.324015 2.271796,0.06682 17.973876,0.267268 18.775686,0.400904 0.80181,0.133633 12.49485,-0.400904 13.43029,-0.400904 0.93545,0 13.49711,-1.069079 13.49711,-1.069079 l 9.88898,0.734992"
       id="path1118"
       inkscape:connector-curvature="0"
       sodipodi:nodetypes="ccccscscc" />
    <path
       style="fill:none;stroke:#000000;stroke-width:1;stroke-linecap:butt;stroke-linejoin:miter;stroke-miterlimit:4;stroke-dasharray:none;stroke-opacity:1"
       d="m 153.67998,91.937453 -10.02261,-0.601356 -27.26149,1.870887 c 0,0 -26.726954,-0.801809 -27.261495,-0.734991 -0.534537,0.06682 -25.925142,-1.202714 -25.925142,-1.202714 l -25.591058,0.334087"
       id="path1120"
       inkscape:connector-curvature="0" />
    <path
       style="fill:none;stroke:#000000;stroke-width:1;stroke-linecap:butt;stroke-linejoin:miter;stroke-miterlimit:4;stroke-dasharray:none;stroke-opacity:1"
       d="m 97.419741,56.591059 c 10.020099,0.502381 11.794889,6.597404 8.352169,12.361214 -4.55731,6.495724 -3.54585,10.939793 -1.40316,14.967096 4.72176,5.045217 9.44352,3.791599 14.16528,1.069078 6.40394,-5.082636 1.52199,-5.824548 -0.8018,-7.550365"
       id="path1122"
       inkscape:connector-curvature="0"
       sodipodi:nodetypes="ccccc" />
    <path
       style="fill:#36ff15;fill-opacity:1;stroke:#007a00;stroke-width:0.26458332px;stroke-linecap:butt;stroke-linejoin:miter;stroke-opacity:1"
       d="m 53.762283,53.980433 c -0.646317,0.166418 -1.364343,0.402295 -1.469983,1.269529 -0.160392,2.270985 0.716422,1.637794 1.403165,1.536801 0.851922,-0.112628 0.935443,-0.653625 1.403165,-0.80181 0.880613,-0.26085 0.935442,-1.135896 0.935442,-1.135896 -0.05233,-1.011948 -0.84445,-1.236274 -2.271789,-0.868624 z"
       id="path1126"
       inkscape:connector-curvature="0"
       sodipodi:nodetypes="cccccc" />
    <path
       style="fill:#36ff15;fill-opacity:1;stroke:#007a00;stroke-width:0.26458332px;stroke-linecap:butt;stroke-linejoin:miter;stroke-opacity:1"
       d="m 59.517967,52.846198 c -0.646317,0.166418 -1.364343,0.402295 -1.469983,1.269529 -0.160392,2.270985 0.716422,1.637794 1.403165,1.536801 0.851922,-0.112628 0.935443,-0.653625 1.403165,-0.80181 0.880613,-0.26085 0.935442,-1.135896 0.935442,-1.135896 -0.05233,-1.011948 -0.84445,-1.236274 -2.271789,-0.868624 z"
       id="path1126-3"
       inkscape:connector-curvature="0"
       sodipodi:nodetypes="cccccc" />
    <path
       style="fill:#36ff15;fill-opacity:1;stroke:#007a00;stroke-width:0.26458332px;stroke-linecap:butt;stroke-linejoin:miter;stroke-opacity:1"
       d="m 70.57377,52.846198 c -0.646317,0.166418 -1.364343,0.402295 -1.469983,1.269529 -0.160392,2.270986 0.716422,1.637794 1.403165,1.536801 0.851922,-0.112628 0.935443,-0.653625 1.403165,-0.80181 0.880613,-0.26085 0.935442,-1.135896 0.935442,-1.135896 -0.05233,-1.011948 -0.84445,-1.236274 -2.271789,-0.868624 z"
       id="path1126-6"
       inkscape:connector-curvature="0"
       sodipodi:nodetypes="cccccc" />
    <path
       style="fill:#36ff15;fill-opacity:1;stroke:#007a00;stroke-width:0.26458332px;stroke-linecap:butt;stroke-linejoin:miter;stroke-opacity:1"
       d="m 76.729166,51.315476 c -0.646317,0.166418 -1.364343,0.402295 -1.469983,1.269529 -0.160392,2.270985 0.716422,1.637794 1.403165,1.536801 0.851922,-0.112628 0.935443,-0.653625 1.403165,-0.80181 0.880613,-0.26085 0.935442,-1.135896 0.935442,-1.135896 -0.05233,-1.011948 -0.84445,-1.236274 -2.271789,-0.868624 z"
       id="path1126-8"
       inkscape:connector-curvature="0"
       sodipodi:nodetypes="cccccc" />
    <path
       style="fill:#36ff15;fill-opacity:1;stroke:#007a00;stroke-width:0.26458332px;stroke-linecap:butt;stroke-linejoin:miter;stroke-opacity:1"
       d="m 89.567074,51.71227 c -0.646317,0.166418 -1.364343,0.402295 -1.469983,1.269529 -0.160392,2.270985 0.716422,1.637794 1.403165,1.536801 0.851922,-0.112628 0.935443,-0.653625 1.403165,-0.80181 0.880613,-0.26085 0.935442,-1.135896 0.935442,-1.135896 -0.05233,-1.011948 -0.84445,-1.236274 -2.271789,-0.868624 z"
       id="path1126-0"
       inkscape:connector-curvature="0"
       sodipodi:nodetypes="cccccc" />
    <path
       style="fill:#36ff15;fill-opacity:1;stroke:#007a00;stroke-width:0.26458332px;stroke-linecap:butt;stroke-linejoin:miter;stroke-opacity:1"
       d="m 101.26224,53.771339 c -0.64632,0.166418 -1.364336,0.402295 -1.469976,1.269529 -0.1604,2.270985 0.716416,1.637794 1.403156,1.536801 0.85192,-0.112628 0.93544,-0.653625 1.40317,-0.80181 0.88061,-0.26085 0.93544,-1.135896 0.93544,-1.135896 -0.0523,-1.011948 -0.84445,-1.236274 -2.27179,-0.868624 z"
       id="path1126-2"
       inkscape:connector-curvature="0"
       sodipodi:nodetypes="cccccc" />
    <path
       style="fill:#36ff15;fill-opacity:1;stroke:#007a00;stroke-width:0.26458332px;stroke-linecap:butt;stroke-linejoin:miter;stroke-opacity:1"
       d="m 112.03847,54.514666 c -0.64631,0.166418 -1.36434,0.402295 -1.46998,1.269529 -0.16039,2.270985 0.71642,1.637794 1.40317,1.536801 0.85192,-0.112628 0.93544,-0.653625 1.40316,-0.80181 0.88061,-0.26085 0.93544,-1.135896 0.93544,-1.135896 -0.0523,-1.011948 -0.84445,-1.236274 -2.27179,-0.868624 z"
       id="path1126-1"
       inkscape:connector-curvature="0"
       sodipodi:nodetypes="cccccc" />
    <path
       style="fill:#36ff15;fill-opacity:1;stroke:#007a00;stroke-width:0.26458332px;stroke-linecap:butt;stroke-linejoin:miter;stroke-opacity:1"
       d="m 118.55382,53.959166 c -0.64631,0.166418 -1.36434,0.402295 -1.46998,1.269529 -0.16039,2.270985 0.71642,1.637794 1.40316,1.536801 0.85193,-0.112628 0.93545,-0.653625 1.40317,-0.80181 0.88061,-0.26085 0.93544,-1.135896 0.93544,-1.135896 -0.0523,-1.011948 -0.84445,-1.236274 -2.27179,-0.868624 z"
       id="path1126-05"
       inkscape:connector-curvature="0"
       sodipodi:nodetypes="cccccc" />
    <path
       style="fill:#36ff15;fill-opacity:1;stroke:#007a00;stroke-width:0.26458332px;stroke-linecap:butt;stroke-linejoin:miter;stroke-opacity:1"
       d="m 126.41975,53.180285 c -0.64631,0.166418 -1.36434,0.402295 -1.46998,1.269529 -0.16039,2.270986 0.71642,1.637794 1.40316,1.536801 0.85193,-0.112628 0.93545,-0.653625 1.40317,-0.80181 0.88061,-0.26085 0.93544,-1.135896 0.93544,-1.135896 -0.0523,-1.011948 -0.84445,-1.236274 -2.27179,-0.868624 z"
       id="path1126-11"
       inkscape:connector-curvature="0"
       sodipodi:nodetypes="cccccc" />
    <path
       style="fill:#36ff15;fill-opacity:1;stroke:#007a00;stroke-width:0.26458332px;stroke-linecap:butt;stroke-linejoin:miter;stroke-opacity:1"
       d="m 134.68798,52.326481 c -0.64631,0.166418 -1.36434,0.402295 -1.46998,1.269529 -0.16039,2.270985 0.71642,1.637794 1.40317,1.536801 0.85192,-0.112628 0.93544,-0.653625 1.40316,-0.80181 0.88061,-0.26085 0.93544,-1.135896 0.93544,-1.135896 -0.0523,-1.011948 -0.84445,-1.236274 -2.27179,-0.868624 z"
       id="path1126-08"
       inkscape:connector-curvature="0"
       sodipodi:nodetypes="cccccc" />
    <path
       style="fill:#36ff15;fill-opacity:1;stroke:#007a00;stroke-width:0.26458332px;stroke-linecap:butt;stroke-linejoin:miter;stroke-opacity:1"
       d="m 129.34907,54.263609 c -0.64632,0.166418 -1.36435,0.402295 -1.46999,1.269529 -0.16039,2.270985 0.71643,1.637794 1.40317,1.536801 0.85192,-0.112628 0.93544,-0.653625 1.40316,-0.80181 0.88062,-0.26085 0.93545,-1.135896 0.93545,-1.135896 -0.0523,-1.011948 -0.84445,-1.236274 -2.27179,-0.868624 z"
       id="path1126-5"
       inkscape:connector-curvature="0"
       sodipodi:nodetypes="cccccc" />
    <path
       style="fill:#36ff15;fill-opacity:1;stroke:#007a00;stroke-width:0.26458332px;stroke-linecap:butt;stroke-linejoin:miter;stroke-opacity:1"
       d="m 122.48637,53.779675 c -0.64631,0.166418 -1.36434,0.402295 -1.46998,1.269529 -0.16039,2.270985 0.71642,1.637794 1.40317,1.536801 0.85192,-0.112628 0.93544,-0.653625 1.40316,-0.80181 0.88061,-0.26085 0.93544,-1.135896 0.93544,-1.135896 -0.0523,-1.011948 -0.84445,-1.236274 -2.27179,-0.868624 z"
       id="path1126-06"
       inkscape:connector-curvature="0"
       sodipodi:nodetypes="cccccc" />
    <path
       style="fill:#36ff15;fill-opacity:1;stroke:#007a00;stroke-width:0.26458332px;stroke-linecap:butt;stroke-linejoin:miter;stroke-opacity:1"
       d="m 115.26372,55.191354 c -0.64632,0.166418 -1.36434,0.402295 -1.46998,1.269529 -0.1604,2.270985 0.71642,1.637794 1.40316,1.536801 0.85192,-0.112628 0.93544,-0.653625 1.40317,-0.80181 0.88061,-0.26085 0.93544,-1.135896 0.93544,-1.135896 -0.0523,-1.011948 -0.84445,-1.236274 -2.27179,-0.868624 z"
       id="path1126-4"
       inkscape:connector-curvature="0"
       sodipodi:nodetypes="cccccc" />
    <path
       style="fill:#36ff15;fill-opacity:1;stroke:#007a00;stroke-width:0.26458332px;stroke-linecap:butt;stroke-linejoin:miter;stroke-opacity:1"
       d="m 106.33641,54.457345 c -0.64632,0.166418 -1.36435,0.402295 -1.46999,1.269529 -0.16039,2.270986 0.71643,1.637794 1.40317,1.536801 0.85192,-0.112628 0.93544,-0.653625 1.40316,-0.80181 0.88062,-0.26085 0.93545,-1.135896 0.93545,-1.135896 -0.0523,-1.011948 -0.84445,-1.236274 -2.27179,-0.868624 z"
       id="path1126-62"
       inkscape:connector-curvature="0"
       sodipodi:nodetypes="cccccc" />
    <path
       style="fill:#36ff15;fill-opacity:1;stroke:#007a00;stroke-width:0.26458332px;stroke-linecap:butt;stroke-linejoin:miter;stroke-opacity:1"
       d="m 95.520199,53.507657 c -0.646317,0.166418 -1.364343,0.402295 -1.469983,1.269529 -0.160392,2.270985 0.716422,1.637794 1.403165,1.536801 0.851922,-0.112628 0.935443,-0.653625 1.403165,-0.80181 0.880613,-0.26085 0.935442,-1.135896 0.935442,-1.135896 -0.05233,-1.011948 -0.84445,-1.236274 -2.271789,-0.868624 z"
       id="path1126-58"
       inkscape:connector-curvature="0"
       sodipodi:nodetypes="cccccc" />
    <path
       style="fill:#36ff15;fill-opacity:1;stroke:#007a00;stroke-width:0.26458332px;stroke-linecap:butt;stroke-linejoin:miter;stroke-opacity:1"
       d="m 83.802937,51.428787 c -0.646317,0.166418 -1.364343,0.402295 -1.469983,1.269529 -0.160392,2.270986 0.716422,1.637795 1.403165,1.536802 0.851922,-0.112629 0.935443,-0.653626 1.403165,-0.801811 0.880613,-0.26085 0.935442,-1.135896 0.935442,-1.135896 -0.05233,-1.011948 -0.84445,-1.236274 -2.271789,-0.868624 z"
       id="path1126-628"
       inkscape:connector-curvature="0"
       sodipodi:nodetypes="cccccc" />
    <path
       style="fill:#36ff15;fill-opacity:1;stroke:#007a00;stroke-width:0.26458332px;stroke-linecap:butt;stroke-linejoin:miter;stroke-opacity:1"
       d="m 49.892857,51.693452 c -0.646317,0.166418 -1.364343,0.402295 -1.469983,1.269529 -0.160392,2.270985 0.716422,1.637794 1.403165,1.536801 0.851922,-0.112628 0.935443,-0.653625 1.403165,-0.80181 0.880613,-0.26085 0.935442,-1.135896 0.935442,-1.135896 -0.05233,-1.011948 -0.84445,-1.236274 -2.271789,-0.868624 z"
       id="path1126-47"
       inkscape:connector-curvature="0"
       sodipodi:nodetypes="cccccc" />
    <path
       style="fill:#36ff15;fill-opacity:1;stroke:#007a00;stroke-width:0.26458332px;stroke-linecap:butt;stroke-linejoin:miter;stroke-opacity:1"
       d="m 44.871389,53.12968 c -0.646317,0.166418 -1.364343,0.402295 -1.469983,1.269529 -0.160392,2.270985 0.716422,1.637794 1.403165,1.536801 0.851922,-0.112628 0.935443,-0.653625 1.403165,-0.80181 0.880613,-0.26085 0.935442,-1.135896 0.935442,-1.135896 -0.05233,-1.011948 -0.84445,-1.236274 -2.271789,-0.868624 z"
       id="path1126-24"
       inkscape:connector-curvature="0"
       sodipodi:nodetypes="cccccc" />
    <path
       style="fill:#36ff15;fill-opacity:1;stroke:#007a00;stroke-width:0.26458332px;stroke-linecap:butt;stroke-linejoin:miter;stroke-opacity:1"
       d="m 39.957699,53.035186 c -0.646317,0.166418 -1.364343,0.402295 -1.469983,1.269529 -0.160392,2.270986 0.716422,1.637795 1.403165,1.536802 0.851922,-0.112629 0.935443,-0.653626 1.403165,-0.801811 0.880613,-0.26085 0.935442,-1.135896 0.935442,-1.135896 -0.05233,-1.011948 -0.84445,-1.236274 -2.271789,-0.868624 z"
       id="path1126-062"
       inkscape:connector-curvature="0"
       sodipodi:nodetypes="cccccc" />
    <path
       style="fill:#36ff15;fill-opacity:1;stroke:#007a00;stroke-width:0.26458332px;stroke-linecap:butt;stroke-linejoin:miter;stroke-opacity:1"
       d="m 139.27094,52.940692 c -0.64631,0.166418 -1.36434,0.402295 -1.46998,1.269529 -0.16039,2.270986 0.71642,1.637794 1.40317,1.536801 0.85192,-0.112628 0.93544,-0.653625 1.40316,-0.80181 0.88061,-0.26085 0.93544,-1.135896 0.93544,-1.135896 -0.0523,-1.011948 -0.84445,-1.236274 -2.27179,-0.868624 z"
       id="path1126-9"
       inkscape:connector-curvature="0"
       sodipodi:nodetypes="cccccc" />
    <path
       style="fill:#36ff15;fill-opacity:1;stroke:#007a00;stroke-width:0.26458332px;stroke-linecap:butt;stroke-linejoin:miter;stroke-opacity:1"
       d="m 143.61767,53.318669 c -0.64632,0.166418 -1.36434,0.402295 -1.46998,1.269529 -0.1604,2.270985 0.71642,1.637794 1.40316,1.536801 0.85192,-0.112628 0.93544,-0.653625 1.40317,-0.80181 0.88061,-0.26085 0.93544,-1.135896 0.93544,-1.135896 -0.0523,-1.011948 -0.84445,-1.236274 -2.27179,-0.868624 z"
       id="path1126-90"
       inkscape:connector-curvature="0"
       sodipodi:nodetypes="cccccc" />
    <path
       style="fill:#36ff15;fill-opacity:1;stroke:#007a00;stroke-width:0.26458332px;stroke-linecap:butt;stroke-linejoin:miter;stroke-opacity:1"
       d="m 148.90934,51.901258 c -0.64632,0.166418 -1.36435,0.402295 -1.46999,1.269529 -0.16039,2.270985 0.71642,1.637794 1.40317,1.536801 0.85192,-0.112628 0.93544,-0.653625 1.40316,-0.80181 0.88062,-0.26085 0.93544,-1.135896 0.93544,-1.135896 -0.0523,-1.011948 -0.84445,-1.236274 -2.27178,-0.868624 z"
       id="path1126-81"
       inkscape:connector-curvature="0"
       sodipodi:nodetypes="cccccc" />
    <path
       style="fill:#36ff15;fill-opacity:1;stroke:#007a00;stroke-width:0.26458332px;stroke-linecap:butt;stroke-linejoin:miter;stroke-opacity:1"
       d="m 153.16156,52.231987 c -0.64631,0.166418 -1.36434,0.402295 -1.46998,1.269529 -0.16039,2.270985 0.71642,1.637794 1.40317,1.536801 0.85192,-0.112628 0.93544,-0.653625 1.40316,-0.80181 0.88061,-0.26085 0.93544,-1.135896 0.93544,-1.135896 -0.0523,-1.011948 -0.84445,-1.236274 -2.27179,-0.868624 z"
       id="path1126-31"
       inkscape:connector-curvature="0"
       sodipodi:nodetypes="cccccc" />
    <text
       xml:space="preserve"
       style="font-style:normal;font-weight:normal;font-size:10.58333302px;line-height:1.25;font-family:sans-serif;letter-spacing:0px;word-spacing:0px;fill:#000000;fill-opacity:1;stroke:none;stroke-width:0.26458332"
       x="158.68304"
       y="49.198811"
       id="text1271"><tspan
         sodipodi:role="line"
         id="tspan1269"
         x="158.68304"
         y="49.198811"
         style="font-style:normal;font-variant:normal;font-weight:normal;font-stretch:normal;font-size:5.64444447px;font-family:sans-serif;-inkscape-font-specification:'sans-serif, Normal';font-variant-ligatures:normal;font-variant-caps:normal;font-variant-numeric:normal;font-feature-settings:normal;text-align:start;writing-mode:lr-tb;text-anchor:start;stroke-width:0.26458332">Överbarken</tspan></text>
    <text
       xml:space="preserve"
       style="font-style:normal;font-weight:normal;font-size:10.58333302px;line-height:1.25;font-family:sans-serif;letter-spacing:0px;word-spacing:0px;fill:#000000;fill-opacity:1;stroke:none;stroke-width:0.26458332"
       x="158.9559"
       y="55.019642"
       id="text1275"><tspan
         sodipodi:role="line"
         id="tspan1273"
         x="158.9559"
         y="55.019642"
         style="font-style:normal;font-variant:normal;font-weight:normal;font-stretch:normal;font-size:5.64444447px;font-family:sans-serif;-inkscape-font-specification:'sans-serif, Normal';font-variant-ligatures:normal;font-variant-caps:normal;font-variant-numeric:normal;font-feature-settings:normal;text-align:start;writing-mode:lr-tb;text-anchor:start;stroke-width:0.26458332">Algskikt</tspan></text>
    <text
       xml:space="preserve"
       style="font-style:normal;font-weight:normal;font-size:10.58333302px;line-height:1.25;font-family:sans-serif;letter-spacing:0px;word-spacing:0px;fill:#000000;fill-opacity:1;stroke:none;stroke-width:0.26458332"
       x="158.44603"
       y="71.726181"
       id="text1279"><tspan
         sodipodi:role="line"
         id="tspan1277"
         x="158.44603"
         y="71.726181"
         style="font-style:normal;font-variant:normal;font-weight:normal;font-stretch:normal;font-size:5.64444447px;font-family:sans-serif;-inkscape-font-specification:'sans-serif, Normal';font-variant-ligatures:normal;font-variant-caps:normal;font-variant-numeric:normal;font-feature-settings:normal;text-align:start;writing-mode:lr-tb;text-anchor:start;stroke-width:0.26458332">Märg</tspan></text>
    <text
       xml:space="preserve"
       style="font-style:normal;font-weight:normal;font-size:10.58333302px;line-height:1.25;font-family:sans-serif;letter-spacing:0px;word-spacing:0px;fill:#000000;fill-opacity:1;stroke:none;stroke-width:0.26458332"
       x="158.50941"
       y="93.49762"
       id="text1283"><tspan
         sodipodi:role="line"
         id="tspan1281"
         x="158.50941"
         y="93.49762"
         style="font-style:normal;font-variant:normal;font-weight:normal;font-stretch:normal;font-size:5.64444447px;font-family:sans-serif;-inkscape-font-specification:'sans-serif, Normal';font-variant-ligatures:normal;font-variant-caps:normal;font-variant-numeric:normal;font-feature-settings:normal;text-align:start;writing-mode:lr-tb;text-anchor:start;stroke-width:0.26458332">Underbark</tspan></text>
  </g>
</svg>
