<?xml version="1.0" encoding="UTF-8" standalone="no"?>
<!-- Created with Inkscape (http://www.inkscape.org/) -->

<svg
   xmlns:dc="http://purl.org/dc/elements/1.1/"
   xmlns:cc="http://creativecommons.org/ns#"
   xmlns:rdf="http://www.w3.org/1999/02/22-rdf-syntax-ns#"
   xmlns:svg="http://www.w3.org/2000/svg"
   xmlns="http://www.w3.org/2000/svg"
   xmlns:sodipodi="http://sodipodi.sourceforge.net/DTD/sodipodi-0.dtd"
   xmlns:inkscape="http://www.inkscape.org/namespaces/inkscape"
   width="50.213146mm"
   height="29.624348mm"
   viewBox="0 0 50.213146 29.624348"
   version="1.1"
   id="svg1260"
   inkscape:version="0.92.3 (2405546, 2018-03-11)"
   sodipodi:docname="soredie.svg">
  <defs
     id="defs1254" />
  <sodipodi:namedview
     id="base"
     pagecolor="#ffffff"
     bordercolor="#666666"
     borderopacity="1.0"
     inkscape:pageopacity="0.0"
     inkscape:pageshadow="2"
     inkscape:zoom="5.6"
     inkscape:cx="109.6107"
     inkscape:cy="29.443965"
     inkscape:document-units="mm"
     inkscape:current-layer="layer1"
     showgrid="false"
     inkscape:window-width="2493"
     inkscape:window-height="1385"
     inkscape:window-x="67"
     inkscape:window-y="27"
     inkscape:window-maximized="1"
     fit-margin-top="0"
     fit-margin-left="0"
     fit-margin-right="0"
     fit-margin-bottom="0" />
  <metadata
     id="metadata1257">
    <rdf:RDF>
      <cc:Work
         rdf:about="">
        <dc:format>image/svg+xml</dc:format>
        <dc:type
           rdf:resource="http://purl.org/dc/dcmitype/StillImage" />
        <dc:title></dc:title>
      </cc:Work>
    </rdf:RDF>
  </metadata>
  <g
     inkscape:label="Layer 1"
     inkscape:groupmode="layer"
     id="layer1"
     transform="translate(-23.584121,-7.5139409)">
    <ellipse
       style="opacity:0.66381836;fill:none;fill-opacity:1;stroke:#008700;stroke-width:0.56500006;stroke-linecap:round;stroke-linejoin:round;stroke-miterlimit:4;stroke-dasharray:none;stroke-opacity:1"
       id="path1139"
       cx="44.376766"
       cy="22.636532"
       rx="0.28348213"
       ry="0.25985864" />
    <path
       style="fill:none;stroke:#000000;stroke-width:0.86500001;stroke-linecap:butt;stroke-linejoin:miter;stroke-miterlimit:4;stroke-dasharray:none;stroke-opacity:1"
       d="m 23.623512,28.258928 c 2.982035,-0.272728 5.664075,-0.888307 9.82738,0.188987 3.445255,0.767552 7.644519,0.948341 7.926037,-0.0072 1.567686,-4.347295 1.703527,-4.453842 0.767415,-10.198149"
       id="path1807"
       inkscape:connector-curvature="0"
       sodipodi:nodetypes="cccc" />
    <path
       style="fill:none;stroke:#000000;stroke-width:0.86500001;stroke-linecap:butt;stroke-linejoin:miter;stroke-miterlimit:4;stroke-dasharray:none;stroke-opacity:1"
       d="m 55.562499,18.809523 c -1.058359,3.716766 -1.270653,6.157862 0.188988,9.874628 0.292558,0.994434 2.367441,1.470997 8.504464,0.897694 3.149802,-0.446574 6.299604,-0.496016 9.449406,0.188987"
       id="path1809"
       inkscape:connector-curvature="0"
       sodipodi:nodetypes="cccc" />
    <path
       style="fill:none;stroke:#000000;stroke-width:0.26458332px;stroke-linecap:butt;stroke-linejoin:miter;stroke-opacity:1"
       d="m 43.845239,20.935639 c -0.8011,0.639723 0.08673,1.127194 0.708705,0.992188 0.657465,-0.04976 0.998959,-0.509871 1.322916,0.141741 0.213687,1.067789 -0.305176,2.569357 -0.708705,0.94494"
       id="path1811"
       inkscape:connector-curvature="0"
       sodipodi:nodetypes="cccc" />
    <ellipse
       style="opacity:0.66381836;fill:none;fill-opacity:1;stroke:#008700;stroke-width:0.56500006;stroke-linecap:round;stroke-linejoin:round;stroke-miterlimit:4;stroke-dasharray:none;stroke-opacity:1"
       id="path1139-2"
       cx="44.305897"
       cy="21.40811"
       rx="0.28348213"
       ry="0.25985864" />
    <path
       style="fill:none;stroke:#000000;stroke-width:0.26458332px;stroke-linecap:butt;stroke-linejoin:miter;stroke-opacity:1"
       d="m 45.357142,20.699404 c 0.181507,0.555451 0.0482,1.242529 -0.803198,1.228423 -0.79136,-0.0704 -1.053875,0.09096 -1.039434,0.661458 0.105401,1.172562 0.316107,1.076099 1.039434,1.275669"
       id="path1813"
       inkscape:connector-curvature="0"
       sodipodi:nodetypes="cccc" />
    <path
       style="fill:none;stroke:#000000;stroke-width:0.26458332px;stroke-linecap:butt;stroke-linejoin:miter;stroke-opacity:1"
       d="m 45.168155,23.014508 c -1.057216,0.501681 -1.697279,-0.143805 -2.126117,-1.370164"
       id="path1815"
       inkscape:connector-curvature="0"
       sodipodi:nodetypes="cc" />
    <path
       style="fill:none;stroke:#000000;stroke-width:0.26458332px;stroke-linecap:butt;stroke-linejoin:miter;stroke-opacity:1"
       d="m 43.845239,20.935639 c 1.15645,-0.344487 0.708705,0.992188 1.322916,2.078869 0.727162,-0.611075 0.831812,-0.132756 0.944939,0.330729"
       id="path1819"
       inkscape:connector-curvature="0"
       sodipodi:nodetypes="ccc" />
    <ellipse
       style="opacity:0.66381836;fill:none;fill-opacity:1;stroke:#008700;stroke-width:0.56500006;stroke-linecap:round;stroke-linejoin:round;stroke-miterlimit:4;stroke-dasharray:none;stroke-opacity:1"
       id="path1139-8"
       cx="45.534321"
       cy="22.211309"
       rx="0.28348213"
       ry="0.25985864" />
    <ellipse
       style="opacity:0.66381836;fill:none;fill-opacity:1;stroke:#008700;stroke-width:0.56500006;stroke-linecap:round;stroke-linejoin:round;stroke-miterlimit:4;stroke-dasharray:none;stroke-opacity:1"
       id="path1139-5"
       cx="49.910416"
       cy="22.090338"
       rx="0.28348213"
       ry="0.25985864" />
    <path
       style="fill:none;stroke:#000000;stroke-width:0.26458332px;stroke-linecap:butt;stroke-linejoin:miter;stroke-opacity:1"
       d="m 49.378889,20.389446 c -0.801101,0.639723 0.08673,1.127194 0.708705,0.992188 0.657465,-0.04976 0.998959,-0.509871 1.322916,0.141741 0.213687,1.067789 -0.305176,2.569357 -0.708705,0.94494"
       id="path1811-3"
       inkscape:connector-curvature="0"
       sodipodi:nodetypes="cccc" />
    <ellipse
       style="opacity:0.66381836;fill:none;fill-opacity:1;stroke:#008700;stroke-width:0.56500006;stroke-linecap:round;stroke-linejoin:round;stroke-miterlimit:4;stroke-dasharray:none;stroke-opacity:1"
       id="path1139-2-4"
       cx="49.839546"
       cy="20.861916"
       rx="0.28348213"
       ry="0.25985864" />
    <path
       style="fill:none;stroke:#000000;stroke-width:0.26458332px;stroke-linecap:butt;stroke-linejoin:miter;stroke-opacity:1"
       d="m 50.890792,20.153211 c 0.181507,0.555451 0.0482,1.242529 -0.803198,1.228423 -0.79136,-0.0704 -1.053875,0.09096 -1.039435,0.661458 0.105402,1.172562 0.316108,1.076099 1.039435,1.275669"
       id="path1813-9"
       inkscape:connector-curvature="0"
       sodipodi:nodetypes="cccc" />
    <path
       style="fill:none;stroke:#000000;stroke-width:0.26458332px;stroke-linecap:butt;stroke-linejoin:miter;stroke-opacity:1"
       d="m 50.701805,22.468315 c -1.057216,0.501681 -1.69728,-0.143805 -2.126118,-1.370164"
       id="path1815-0"
       inkscape:connector-curvature="0"
       sodipodi:nodetypes="cc" />
    <path
       style="fill:none;stroke:#000000;stroke-width:0.26458332px;stroke-linecap:butt;stroke-linejoin:miter;stroke-opacity:1"
       d="m 49.378889,20.389446 c 1.15645,-0.344487 0.708705,0.992188 1.322916,2.078869 0.727161,-0.611075 0.831812,-0.132756 0.944939,0.330729"
       id="path1819-2"
       inkscape:connector-curvature="0"
       sodipodi:nodetypes="ccc" />
    <ellipse
       style="opacity:0.66381836;fill:none;fill-opacity:1;stroke:#008700;stroke-width:0.56500006;stroke-linecap:round;stroke-linejoin:round;stroke-miterlimit:4;stroke-dasharray:none;stroke-opacity:1"
       id="path1139-8-0"
       cx="51.06797"
       cy="21.665115"
       rx="0.28348213"
       ry="0.25985864" />
    <ellipse
       style="opacity:0.66381836;fill:none;fill-opacity:1;stroke:#008700;stroke-width:0.56500006;stroke-linecap:round;stroke-linejoin:round;stroke-miterlimit:4;stroke-dasharray:none;stroke-opacity:1"
       id="path1139-1"
       cx="47.538399"
       cy="26.333242"
       rx="0.28348213"
       ry="0.25985864" />
    <path
       style="fill:none;stroke:#000000;stroke-width:0.26458332px;stroke-linecap:butt;stroke-linejoin:miter;stroke-opacity:1"
       d="m 47.006871,24.632349 c -0.8011,0.639723 0.08673,1.127195 0.708705,0.992189 0.657465,-0.04976 0.998959,-0.509872 1.322917,0.14174 0.213687,1.06779 -0.305176,2.569358 -0.708706,0.944941"
       id="path1811-9"
       inkscape:connector-curvature="0"
       sodipodi:nodetypes="cccc" />
    <ellipse
       style="opacity:0.66381836;fill:none;fill-opacity:1;stroke:#008700;stroke-width:0.56500006;stroke-linecap:round;stroke-linejoin:round;stroke-miterlimit:4;stroke-dasharray:none;stroke-opacity:1"
       id="path1139-2-6"
       cx="47.467529"
       cy="25.10482"
       rx="0.28348213"
       ry="0.25985864" />
    <path
       style="fill:none;stroke:#000000;stroke-width:0.26458332px;stroke-linecap:butt;stroke-linejoin:miter;stroke-opacity:1"
       d="m 48.518774,24.396114 c 0.181507,0.555451 0.0482,1.242529 -0.803198,1.228424 -0.79136,-0.0704 -1.053875,0.09096 -1.039434,0.661458 0.105401,1.172561 0.316107,1.076099 1.039434,1.275669"
       id="path1813-2"
       inkscape:connector-curvature="0"
       sodipodi:nodetypes="cccc" />
    <path
       style="fill:none;stroke:#000000;stroke-width:0.26458332px;stroke-linecap:butt;stroke-linejoin:miter;stroke-opacity:1"
       d="m 48.329787,26.711219 c -1.057216,0.50168 -1.697279,-0.143805 -2.126117,-1.370165"
       id="path1815-1"
       inkscape:connector-curvature="0"
       sodipodi:nodetypes="cc" />
    <path
       style="fill:none;stroke:#000000;stroke-width:0.26458332px;stroke-linecap:butt;stroke-linejoin:miter;stroke-opacity:1"
       d="m 47.006871,24.632349 c 1.15645,-0.344487 0.708705,0.992189 1.322916,2.07887 0.727162,-0.611075 0.831812,-0.132756 0.94494,0.330728"
       id="path1819-20"
       inkscape:connector-curvature="0"
       sodipodi:nodetypes="ccc" />
    <ellipse
       style="opacity:0.66381836;fill:none;fill-opacity:1;stroke:#008700;stroke-width:0.56500006;stroke-linecap:round;stroke-linejoin:round;stroke-miterlimit:4;stroke-dasharray:none;stroke-opacity:1"
       id="path1139-8-7"
       cx="48.695953"
       cy="25.90802"
       rx="0.28348213"
       ry="0.25985864" />
    <ellipse
       style="opacity:0.66381836;fill:none;fill-opacity:1;stroke:#008700;stroke-width:0.56500006;stroke-linecap:round;stroke-linejoin:round;stroke-miterlimit:4;stroke-dasharray:none;stroke-opacity:1"
       id="path1139-3"
       cx="46.703182"
       cy="19.183783"
       rx="0.28348213"
       ry="0.25985864" />
    <path
       style="fill:none;stroke:#000000;stroke-width:0.26458332px;stroke-linecap:butt;stroke-linejoin:miter;stroke-opacity:1"
       d="m 46.171654,17.48289 c -0.8011,0.639723 0.08673,1.127194 0.708705,0.992188 0.657465,-0.04976 0.998959,-0.509871 1.322916,0.141741 0.213687,1.067789 -0.305176,2.569357 -0.708705,0.94494"
       id="path1811-1"
       inkscape:connector-curvature="0"
       sodipodi:nodetypes="cccc" />
    <ellipse
       style="opacity:0.66381836;fill:none;fill-opacity:1;stroke:#008700;stroke-width:0.56500006;stroke-linecap:round;stroke-linejoin:round;stroke-miterlimit:4;stroke-dasharray:none;stroke-opacity:1"
       id="path1139-2-1"
       cx="46.632313"
       cy="17.95536"
       rx="0.28348213"
       ry="0.25985864" />
    <path
       style="fill:none;stroke:#000000;stroke-width:0.26458332px;stroke-linecap:butt;stroke-linejoin:miter;stroke-opacity:1"
       d="m 47.683557,17.246655 c 0.181507,0.555451 0.0482,1.242529 -0.803198,1.228423 -0.79136,-0.0704 -1.053875,0.09096 -1.039434,0.661458 0.105401,1.172562 0.316107,1.076099 1.039434,1.275669"
       id="path1813-90"
       inkscape:connector-curvature="0"
       sodipodi:nodetypes="cccc" />
    <path
       style="fill:none;stroke:#000000;stroke-width:0.26458332px;stroke-linecap:butt;stroke-linejoin:miter;stroke-opacity:1"
       d="M 47.49457,19.561759 C 46.437354,20.06344 45.797291,19.417954 45.368453,18.191595"
       id="path1815-5"
       inkscape:connector-curvature="0"
       sodipodi:nodetypes="cc" />
    <path
       style="fill:none;stroke:#000000;stroke-width:0.26458332px;stroke-linecap:butt;stroke-linejoin:miter;stroke-opacity:1"
       d="m 46.171654,17.48289 c 1.15645,-0.344487 0.708705,0.992188 1.322916,2.078869 0.727162,-0.611075 0.831812,-0.132756 0.944939,0.330729"
       id="path1819-6"
       inkscape:connector-curvature="0"
       sodipodi:nodetypes="ccc" />
    <ellipse
       style="opacity:0.66381836;fill:none;fill-opacity:1;stroke:#008700;stroke-width:0.56500006;stroke-linecap:round;stroke-linejoin:round;stroke-miterlimit:4;stroke-dasharray:none;stroke-opacity:1"
       id="path1139-8-77"
       cx="47.860737"
       cy="18.75856"
       rx="0.28348213"
       ry="0.25985864" />
    <ellipse
       style="opacity:0.66381836;fill:none;fill-opacity:1;stroke:#008700;stroke-width:0.56500006;stroke-linecap:round;stroke-linejoin:round;stroke-miterlimit:4;stroke-dasharray:none;stroke-opacity:1"
       id="path1139-4"
       cx="42.36005"
       cy="17.580166"
       rx="0.28348213"
       ry="0.25985864" />
    <path
       style="fill:none;stroke:#000000;stroke-width:0.26458332px;stroke-linecap:butt;stroke-linejoin:miter;stroke-opacity:1"
       d="m 41.828524,15.879272 c -0.8011,0.639723 0.08673,1.127194 0.708705,0.992188 0.657465,-0.04976 0.998959,-0.509871 1.322916,0.141741 0.213687,1.067789 -0.305176,2.569357 -0.708705,0.94494"
       id="path1811-0"
       inkscape:connector-curvature="0"
       sodipodi:nodetypes="cccc" />
    <ellipse
       style="opacity:0.66381836;fill:none;fill-opacity:1;stroke:#008700;stroke-width:0.56500006;stroke-linecap:round;stroke-linejoin:round;stroke-miterlimit:4;stroke-dasharray:none;stroke-opacity:1"
       id="path1139-2-64"
       cx="42.289181"
       cy="16.351744"
       rx="0.28348213"
       ry="0.25985864" />
    <path
       style="fill:none;stroke:#000000;stroke-width:0.26458332px;stroke-linecap:butt;stroke-linejoin:miter;stroke-opacity:1"
       d="m 43.340427,15.643037 c 0.181507,0.555451 0.0482,1.242529 -0.803198,1.228423 -0.79136,-0.0704 -1.053875,0.09096 -1.039434,0.661458 0.105401,1.172562 0.316107,1.076099 1.039434,1.275669"
       id="path1813-7"
       inkscape:connector-curvature="0"
       sodipodi:nodetypes="cccc" />
    <path
       style="fill:none;stroke:#000000;stroke-width:0.26458332px;stroke-linecap:butt;stroke-linejoin:miter;stroke-opacity:1"
       d="m 43.15144,17.958141 c -1.057216,0.501681 -1.697279,-0.143805 -2.126117,-1.370164"
       id="path1815-4"
       inkscape:connector-curvature="0"
       sodipodi:nodetypes="cc" />
    <path
       style="fill:none;stroke:#000000;stroke-width:0.26458332px;stroke-linecap:butt;stroke-linejoin:miter;stroke-opacity:1"
       d="m 41.828524,15.879272 c 1.15645,-0.344487 0.708705,0.992188 1.322916,2.078869 0.727162,-0.611075 0.831812,-0.132756 0.944939,0.330729"
       id="path1819-8"
       inkscape:connector-curvature="0"
       sodipodi:nodetypes="ccc" />
    <ellipse
       style="opacity:0.66381836;fill:none;fill-opacity:1;stroke:#008700;stroke-width:0.56500006;stroke-linecap:round;stroke-linejoin:round;stroke-miterlimit:4;stroke-dasharray:none;stroke-opacity:1"
       id="path1139-8-5"
       cx="43.517605"
       cy="17.154943"
       rx="0.28348213"
       ry="0.25985864" />
    <ellipse
       style="opacity:0.66381836;fill:none;fill-opacity:1;stroke:#008700;stroke-width:0.56500006;stroke-linecap:round;stroke-linejoin:round;stroke-miterlimit:4;stroke-dasharray:none;stroke-opacity:1"
       id="path1139-82"
       cx="53.351509"
       cy="18.181522"
       rx="0.28348213"
       ry="0.25985864" />
    <path
       style="fill:none;stroke:#000000;stroke-width:0.26458332px;stroke-linecap:butt;stroke-linejoin:miter;stroke-opacity:1"
       d="m 52.819984,16.480629 c -0.8011,0.639723 0.08673,1.127194 0.708705,0.992188 0.657465,-0.04976 0.998959,-0.509871 1.322916,0.141741 0.213687,1.067789 -0.305176,2.569357 -0.708705,0.94494"
       id="path1811-6"
       inkscape:connector-curvature="0"
       sodipodi:nodetypes="cccc" />
    <ellipse
       style="opacity:0.66381836;fill:none;fill-opacity:1;stroke:#008700;stroke-width:0.56500006;stroke-linecap:round;stroke-linejoin:round;stroke-miterlimit:4;stroke-dasharray:none;stroke-opacity:1"
       id="path1139-2-0"
       cx="53.28064"
       cy="16.9531"
       rx="0.28348213"
       ry="0.25985864" />
    <path
       style="fill:none;stroke:#000000;stroke-width:0.26458332px;stroke-linecap:butt;stroke-linejoin:miter;stroke-opacity:1"
       d="m 54.331887,16.244394 c 0.181507,0.555451 0.0482,1.242529 -0.803198,1.228423 -0.79136,-0.0704 -1.053875,0.09096 -1.039434,0.661458 0.105401,1.172562 0.316107,1.076099 1.039434,1.275669"
       id="path1813-6"
       inkscape:connector-curvature="0"
       sodipodi:nodetypes="cccc" />
    <path
       style="fill:none;stroke:#000000;stroke-width:0.26458332px;stroke-linecap:butt;stroke-linejoin:miter;stroke-opacity:1"
       d="m 54.1429,18.559498 c -1.057216,0.501681 -1.697279,-0.143805 -2.126117,-1.370164"
       id="path1815-6"
       inkscape:connector-curvature="0"
       sodipodi:nodetypes="cc" />
    <path
       style="fill:none;stroke:#000000;stroke-width:0.26458332px;stroke-linecap:butt;stroke-linejoin:miter;stroke-opacity:1"
       d="m 52.819984,16.480629 c 1.15645,-0.344487 0.708705,0.992188 1.322916,2.078869 0.727162,-0.611075 0.831812,-0.132756 0.944939,0.330729"
       id="path1819-4"
       inkscape:connector-curvature="0"
       sodipodi:nodetypes="ccc" />
    <ellipse
       style="opacity:0.66381836;fill:none;fill-opacity:1;stroke:#008700;stroke-width:0.56500006;stroke-linecap:round;stroke-linejoin:round;stroke-miterlimit:4;stroke-dasharray:none;stroke-opacity:1"
       id="path1139-8-6"
       cx="54.509064"
       cy="17.7563"
       rx="0.28348213"
       ry="0.25985864" />
    <ellipse
       style="opacity:0.66381836;fill:none;fill-opacity:1;stroke:#008700;stroke-width:0.56500006;stroke-linecap:round;stroke-linejoin:round;stroke-miterlimit:4;stroke-dasharray:none;stroke-opacity:1"
       id="path1139-28"
       cx="49.843597"
       cy="16.878582"
       rx="0.28348213"
       ry="0.25985864" />
    <path
       style="fill:none;stroke:#000000;stroke-width:0.26458332px;stroke-linecap:butt;stroke-linejoin:miter;stroke-opacity:1"
       d="m 49.312071,15.17769 c -0.8011,0.639723 0.08673,1.127194 0.708705,0.992188 0.657465,-0.04976 0.998959,-0.509871 1.322916,0.141741 0.213687,1.067789 -0.305176,2.569357 -0.708705,0.94494"
       id="path1811-96"
       inkscape:connector-curvature="0"
       sodipodi:nodetypes="cccc" />
    <ellipse
       style="opacity:0.66381836;fill:none;fill-opacity:1;stroke:#008700;stroke-width:0.56500006;stroke-linecap:round;stroke-linejoin:round;stroke-miterlimit:4;stroke-dasharray:none;stroke-opacity:1"
       id="path1139-2-07"
       cx="49.772728"
       cy="15.650161"
       rx="0.28348213"
       ry="0.25985864" />
    <path
       style="fill:none;stroke:#000000;stroke-width:0.26458332px;stroke-linecap:butt;stroke-linejoin:miter;stroke-opacity:1"
       d="m 50.823974,14.941455 c 0.181507,0.555451 0.0482,1.242529 -0.803198,1.228423 -0.79136,-0.0704 -1.053875,0.09096 -1.039434,0.661458 0.105401,1.172562 0.316107,1.076099 1.039434,1.275669"
       id="path1813-0"
       inkscape:connector-curvature="0"
       sodipodi:nodetypes="cccc" />
    <path
       style="fill:none;stroke:#000000;stroke-width:0.26458332px;stroke-linecap:butt;stroke-linejoin:miter;stroke-opacity:1"
       d="M 50.634987,17.256559 C 49.577771,17.75824 48.937708,17.112754 48.50887,15.886395"
       id="path1815-10"
       inkscape:connector-curvature="0"
       sodipodi:nodetypes="cc" />
    <path
       style="fill:none;stroke:#000000;stroke-width:0.26458332px;stroke-linecap:butt;stroke-linejoin:miter;stroke-opacity:1"
       d="m 49.312071,15.17769 c 1.15645,-0.344487 0.708705,0.992188 1.322916,2.078869 0.727162,-0.611075 0.831812,-0.132756 0.944939,0.330729"
       id="path1819-1"
       inkscape:connector-curvature="0"
       sodipodi:nodetypes="ccc" />
    <ellipse
       style="opacity:0.66381836;fill:none;fill-opacity:1;stroke:#008700;stroke-width:0.56500006;stroke-linecap:round;stroke-linejoin:round;stroke-miterlimit:4;stroke-dasharray:none;stroke-opacity:1"
       id="path1139-8-3"
       cx="51.001152"
       cy="16.45336"
       rx="0.28348213"
       ry="0.25985864" />
    <ellipse
       style="opacity:0.66381836;fill:none;fill-opacity:1;stroke:#008700;stroke-width:0.56500006;stroke-linecap:round;stroke-linejoin:round;stroke-miterlimit:4;stroke-dasharray:none;stroke-opacity:1"
       id="path1139-7"
       cx="52.984016"
       cy="21.689434"
       rx="0.28348213"
       ry="0.25985864" />
    <path
       style="fill:none;stroke:#000000;stroke-width:0.26458332px;stroke-linecap:butt;stroke-linejoin:miter;stroke-opacity:1"
       d="m 52.452488,19.988541 c -0.8011,0.639723 0.08673,1.127194 0.708705,0.992188 0.657465,-0.04976 0.998959,-0.509871 1.322916,0.141741 0.213687,1.067789 -0.305176,2.569357 -0.708705,0.94494"
       id="path1811-7"
       inkscape:connector-curvature="0"
       sodipodi:nodetypes="cccc" />
    <ellipse
       style="opacity:0.66381836;fill:none;fill-opacity:1;stroke:#008700;stroke-width:0.56500006;stroke-linecap:round;stroke-linejoin:round;stroke-miterlimit:4;stroke-dasharray:none;stroke-opacity:1"
       id="path1139-2-2"
       cx="52.913147"
       cy="20.461012"
       rx="0.28348213"
       ry="0.25985864" />
    <path
       style="fill:none;stroke:#000000;stroke-width:0.26458332px;stroke-linecap:butt;stroke-linejoin:miter;stroke-opacity:1"
       d="m 53.964391,19.752306 c 0.181507,0.555451 0.0482,1.242529 -0.803198,1.228423 -0.79136,-0.0704 -1.053875,0.09096 -1.039434,0.661458 0.105401,1.172562 0.316107,1.076099 1.039434,1.275669"
       id="path1813-64"
       inkscape:connector-curvature="0"
       sodipodi:nodetypes="cccc" />
    <path
       style="fill:none;stroke:#000000;stroke-width:0.26458332px;stroke-linecap:butt;stroke-linejoin:miter;stroke-opacity:1"
       d="m 53.775404,22.06741 c -1.057216,0.501681 -1.697279,-0.143805 -2.126117,-1.370164"
       id="path1815-52"
       inkscape:connector-curvature="0"
       sodipodi:nodetypes="cc" />
    <path
       style="fill:none;stroke:#000000;stroke-width:0.26458332px;stroke-linecap:butt;stroke-linejoin:miter;stroke-opacity:1"
       d="m 52.452488,19.988541 c 1.15645,-0.344487 0.708705,0.992188 1.322916,2.078869 0.727162,-0.611075 0.831812,-0.132756 0.944939,0.330729"
       id="path1819-0"
       inkscape:connector-curvature="0"
       sodipodi:nodetypes="ccc" />
    <ellipse
       style="opacity:0.66381836;fill:none;fill-opacity:1;stroke:#008700;stroke-width:0.56500006;stroke-linecap:round;stroke-linejoin:round;stroke-miterlimit:4;stroke-dasharray:none;stroke-opacity:1"
       id="path1139-8-2"
       cx="54.141571"
       cy="21.264212"
       rx="0.28348213"
       ry="0.25985864" />
    <ellipse
       style="opacity:0.66381836;fill:none;fill-opacity:1;stroke:#008700;stroke-width:0.56500006;stroke-linecap:round;stroke-linejoin:round;stroke-miterlimit:4;stroke-dasharray:none;stroke-opacity:1"
       id="path1139-9"
       cx="53.217876"
       cy="26.233017"
       rx="0.28348213"
       ry="0.25985864" />
    <path
       style="fill:none;stroke:#000000;stroke-width:0.26458332px;stroke-linecap:butt;stroke-linejoin:miter;stroke-opacity:1"
       d="m 52.686349,24.532123 c -0.8011,0.639723 0.08673,1.127194 0.708705,0.992188 0.657465,-0.04976 0.998959,-0.509871 1.322916,0.141741 0.213687,1.067789 -0.305176,2.569357 -0.708705,0.94494"
       id="path1811-09"
       inkscape:connector-curvature="0"
       sodipodi:nodetypes="cccc" />
    <ellipse
       style="opacity:0.66381836;fill:none;fill-opacity:1;stroke:#008700;stroke-width:0.56500006;stroke-linecap:round;stroke-linejoin:round;stroke-miterlimit:4;stroke-dasharray:none;stroke-opacity:1"
       id="path1139-2-9"
       cx="53.147007"
       cy="25.004595"
       rx="0.28348213"
       ry="0.25985864" />
    <path
       style="fill:none;stroke:#000000;stroke-width:0.26458332px;stroke-linecap:butt;stroke-linejoin:miter;stroke-opacity:1"
       d="m 54.198252,24.295888 c 0.181507,0.555451 0.0482,1.242529 -0.803198,1.228423 -0.79136,-0.0704 -1.053875,0.09096 -1.039434,0.661458 0.105401,1.172562 0.316107,1.076099 1.039434,1.275669"
       id="path1813-4"
       inkscape:connector-curvature="0"
       sodipodi:nodetypes="cccc" />
    <path
       style="fill:none;stroke:#000000;stroke-width:0.26458332px;stroke-linecap:butt;stroke-linejoin:miter;stroke-opacity:1"
       d="m 54.009265,26.610992 c -1.057216,0.501681 -1.697279,-0.143805 -2.126117,-1.370164"
       id="path1815-51"
       inkscape:connector-curvature="0"
       sodipodi:nodetypes="cc" />
    <path
       style="fill:none;stroke:#000000;stroke-width:0.26458332px;stroke-linecap:butt;stroke-linejoin:miter;stroke-opacity:1"
       d="m 52.686349,24.532123 c 1.15645,-0.344487 0.708705,0.992188 1.322916,2.078869 0.727162,-0.611075 0.831812,-0.132756 0.944939,0.330729"
       id="path1819-03"
       inkscape:connector-curvature="0"
       sodipodi:nodetypes="ccc" />
    <ellipse
       style="opacity:0.66381836;fill:none;fill-opacity:1;stroke:#008700;stroke-width:0.56500006;stroke-linecap:round;stroke-linejoin:round;stroke-miterlimit:4;stroke-dasharray:none;stroke-opacity:1"
       id="path1139-8-78"
       cx="54.375431"
       cy="25.807795"
       rx="0.28348213"
       ry="0.25985864" />
    <ellipse
       style="opacity:0.66381836;fill:none;fill-opacity:1;stroke:#008700;stroke-width:0.56500006;stroke-linecap:round;stroke-linejoin:round;stroke-miterlimit:4;stroke-dasharray:none;stroke-opacity:1"
       id="path1139-86"
       cx="50.34473"
       cy="25.09712"
       rx="0.28348213"
       ry="0.25985864" />
    <path
       style="fill:none;stroke:#000000;stroke-width:0.26458332px;stroke-linecap:butt;stroke-linejoin:miter;stroke-opacity:1"
       d="m 49.813201,23.396228 c -0.8011,0.639723 0.08673,1.127194 0.708705,0.992188 0.657465,-0.04976 0.998959,-0.509871 1.322917,0.141741 0.213687,1.067789 -0.305176,2.569357 -0.708706,0.94494"
       id="path1811-04"
       inkscape:connector-curvature="0"
       sodipodi:nodetypes="cccc" />
    <ellipse
       style="opacity:0.66381836;fill:none;fill-opacity:1;stroke:#008700;stroke-width:0.56500006;stroke-linecap:round;stroke-linejoin:round;stroke-miterlimit:4;stroke-dasharray:none;stroke-opacity:1"
       id="path1139-2-67"
       cx="50.273861"
       cy="23.868698"
       rx="0.28348213"
       ry="0.25985864" />
    <path
       style="fill:none;stroke:#000000;stroke-width:0.26458332px;stroke-linecap:butt;stroke-linejoin:miter;stroke-opacity:1"
       d="m 51.325104,23.159993 c 0.181507,0.555451 0.0482,1.242529 -0.803198,1.228423 -0.791359,-0.0704 -1.053874,0.09096 -1.039434,0.661458 0.105401,1.172562 0.316108,1.076099 1.039434,1.275669"
       id="path1813-60"
       inkscape:connector-curvature="0"
       sodipodi:nodetypes="cccc" />
    <path
       style="fill:none;stroke:#000000;stroke-width:0.26458332px;stroke-linecap:butt;stroke-linejoin:miter;stroke-opacity:1"
       d="M 51.136117,25.475097 C 50.078901,25.976778 49.438838,25.331292 49.01,24.104933"
       id="path1815-9"
       inkscape:connector-curvature="0"
       sodipodi:nodetypes="cc" />
    <path
       style="fill:none;stroke:#000000;stroke-width:0.26458332px;stroke-linecap:butt;stroke-linejoin:miter;stroke-opacity:1"
       d="m 49.813201,23.396228 c 1.15645,-0.344487 0.708705,0.992188 1.322916,2.078869 0.727162,-0.611075 0.831812,-0.132756 0.94494,0.330729"
       id="path1819-7"
       inkscape:connector-curvature="0"
       sodipodi:nodetypes="ccc" />
    <ellipse
       style="opacity:0.66381836;fill:none;fill-opacity:1;stroke:#008700;stroke-width:0.56500006;stroke-linecap:round;stroke-linejoin:round;stroke-miterlimit:4;stroke-dasharray:none;stroke-opacity:1"
       id="path1139-8-59"
       cx="51.502285"
       cy="24.671898"
       rx="0.28348213"
       ry="0.25985864" />
    <ellipse
       style="opacity:0.66381836;fill:none;fill-opacity:1;stroke:#008700;stroke-width:0.56500006;stroke-linecap:round;stroke-linejoin:round;stroke-miterlimit:4;stroke-dasharray:none;stroke-opacity:1"
       id="path1139-78"
       cx="43.6964"
       cy="27.702999"
       rx="0.28348213"
       ry="0.25985864" />
    <path
       style="fill:none;stroke:#000000;stroke-width:0.26458332px;stroke-linecap:butt;stroke-linejoin:miter;stroke-opacity:1"
       d="m 43.164872,26.002106 c -0.8011,0.639723 0.08673,1.127194 0.708705,0.992188 0.657465,-0.04976 0.998959,-0.509871 1.322916,0.141741 0.213687,1.067789 -0.305176,2.569357 -0.708705,0.94494"
       id="path1811-5"
       inkscape:connector-curvature="0"
       sodipodi:nodetypes="cccc" />
    <ellipse
       style="opacity:0.66381836;fill:none;fill-opacity:1;stroke:#008700;stroke-width:0.56500006;stroke-linecap:round;stroke-linejoin:round;stroke-miterlimit:4;stroke-dasharray:none;stroke-opacity:1"
       id="path1139-2-3"
       cx="43.62553"
       cy="26.474577"
       rx="0.28348213"
       ry="0.25985864" />
    <path
       style="fill:none;stroke:#000000;stroke-width:0.26458332px;stroke-linecap:butt;stroke-linejoin:miter;stroke-opacity:1"
       d="m 44.676775,25.765871 c 0.181507,0.555451 0.0482,1.242529 -0.803198,1.228423 -0.79136,-0.0704 -1.053875,0.09096 -1.039434,0.661458 0.105401,1.172562 0.316107,1.076099 1.039434,1.275669"
       id="path1813-3"
       inkscape:connector-curvature="0"
       sodipodi:nodetypes="cccc" />
    <path
       style="fill:none;stroke:#000000;stroke-width:0.26458332px;stroke-linecap:butt;stroke-linejoin:miter;stroke-opacity:1"
       d="M 44.487788,28.080975 C 43.430572,28.582656 42.790509,27.93717 42.361671,26.710811"
       id="path1815-8"
       inkscape:connector-curvature="0"
       sodipodi:nodetypes="cc" />
    <path
       style="fill:none;stroke:#000000;stroke-width:0.26458332px;stroke-linecap:butt;stroke-linejoin:miter;stroke-opacity:1"
       d="m 43.164872,26.002106 c 1.15645,-0.344487 0.708705,0.992188 1.322916,2.078869 0.727162,-0.611075 0.831812,-0.132756 0.944939,0.330729"
       id="path1819-3"
       inkscape:connector-curvature="0"
       sodipodi:nodetypes="ccc" />
    <ellipse
       style="opacity:0.66381836;fill:none;fill-opacity:1;stroke:#008700;stroke-width:0.56500006;stroke-linecap:round;stroke-linejoin:round;stroke-miterlimit:4;stroke-dasharray:none;stroke-opacity:1"
       id="path1139-8-79"
       cx="44.853954"
       cy="27.277777"
       rx="0.28348213"
       ry="0.25985864" />
    <ellipse
       style="opacity:0.66381836;fill:none;fill-opacity:1;stroke:#008700;stroke-width:0.56500006;stroke-linecap:round;stroke-linejoin:round;stroke-miterlimit:4;stroke-dasharray:none;stroke-opacity:1"
       id="path1139-37"
       cx="49.375877"
       cy="28.838894"
       rx="0.28348213"
       ry="0.25985864" />
    <path
       style="fill:none;stroke:#000000;stroke-width:0.26458332px;stroke-linecap:butt;stroke-linejoin:miter;stroke-opacity:1"
       d="m 48.844349,27.138001 c -0.8011,0.639723 0.08673,1.127194 0.708705,0.992188 0.657465,-0.04976 0.998959,-0.509871 1.322917,0.141741 0.213687,1.067789 -0.305176,2.569357 -0.708706,0.94494"
       id="path1811-8"
       inkscape:connector-curvature="0"
       sodipodi:nodetypes="cccc" />
    <ellipse
       style="opacity:0.66381836;fill:none;fill-opacity:1;stroke:#008700;stroke-width:0.56500006;stroke-linecap:round;stroke-linejoin:round;stroke-miterlimit:4;stroke-dasharray:none;stroke-opacity:1"
       id="path1139-2-7"
       cx="49.305008"
       cy="27.610472"
       rx="0.28348213"
       ry="0.25985864" />
    <path
       style="fill:none;stroke:#000000;stroke-width:0.26458332px;stroke-linecap:butt;stroke-linejoin:miter;stroke-opacity:1"
       d="m 50.356252,26.901766 c 0.181507,0.555451 0.0482,1.242529 -0.803198,1.228423 -0.79136,-0.0704 -1.053875,0.09096 -1.039434,0.661458 0.105401,1.172562 0.316107,1.076099 1.039434,1.275669"
       id="path1813-41"
       inkscape:connector-curvature="0"
       sodipodi:nodetypes="cccc" />
    <path
       style="fill:none;stroke:#000000;stroke-width:0.26458332px;stroke-linecap:butt;stroke-linejoin:miter;stroke-opacity:1"
       d="m 50.167265,29.21687 c -1.057216,0.501681 -1.697279,-0.143805 -2.126117,-1.370164"
       id="path1815-90"
       inkscape:connector-curvature="0"
       sodipodi:nodetypes="cc" />
    <path
       style="fill:none;stroke:#000000;stroke-width:0.26458332px;stroke-linecap:butt;stroke-linejoin:miter;stroke-opacity:1"
       d="m 48.844349,27.138001 c 1.15645,-0.344487 0.708705,0.992188 1.322916,2.078869 0.727162,-0.611075 0.831812,-0.132756 0.94494,0.330729"
       id="path1819-9"
       inkscape:connector-curvature="0"
       sodipodi:nodetypes="ccc" />
    <ellipse
       style="opacity:0.66381836;fill:none;fill-opacity:1;stroke:#008700;stroke-width:0.56500006;stroke-linecap:round;stroke-linejoin:round;stroke-miterlimit:4;stroke-dasharray:none;stroke-opacity:1"
       id="path1139-8-8"
       cx="50.533432"
       cy="28.413671"
       rx="0.28348213"
       ry="0.25985864" />
    <ellipse
       style="opacity:0.66381836;fill:none;fill-opacity:1;stroke:#008700;stroke-width:0.56500006;stroke-linecap:round;stroke-linejoin:round;stroke-miterlimit:4;stroke-dasharray:none;stroke-opacity:1"
       id="path1139-85"
       cx="53.284695"
       cy="29.373434"
       rx="0.28348213"
       ry="0.25985864" />
    <path
       style="fill:none;stroke:#000000;stroke-width:0.26458332px;stroke-linecap:butt;stroke-linejoin:miter;stroke-opacity:1"
       d="m 52.753166,27.67254 c -0.8011,0.639723 0.08673,1.127194 0.708705,0.992188 0.657465,-0.04976 0.998959,-0.509871 1.322916,0.141741 0.213687,1.067789 -0.305176,2.569357 -0.708705,0.94494"
       id="path1811-84"
       inkscape:connector-curvature="0"
       sodipodi:nodetypes="cccc" />
    <ellipse
       style="opacity:0.66381836;fill:none;fill-opacity:1;stroke:#008700;stroke-width:0.56500006;stroke-linecap:round;stroke-linejoin:round;stroke-miterlimit:4;stroke-dasharray:none;stroke-opacity:1"
       id="path1139-2-37"
       cx="53.213825"
       cy="28.145012"
       rx="0.28348213"
       ry="0.25985864" />
    <path
       style="fill:none;stroke:#000000;stroke-width:0.26458332px;stroke-linecap:butt;stroke-linejoin:miter;stroke-opacity:1"
       d="m 54.265069,27.436305 c 0.181507,0.555451 0.0482,1.242529 -0.803198,1.228423 -0.79136,-0.0704 -1.053875,0.09096 -1.039434,0.661458 0.105401,1.172562 0.316107,1.076099 1.039434,1.275669"
       id="path1813-1"
       inkscape:connector-curvature="0"
       sodipodi:nodetypes="cccc" />
    <path
       style="fill:none;stroke:#000000;stroke-width:0.26458332px;stroke-linecap:butt;stroke-linejoin:miter;stroke-opacity:1"
       d="M 54.076082,29.751409 C 53.018866,30.25309 52.378803,29.607604 51.949965,28.381245"
       id="path1815-3"
       inkscape:connector-curvature="0"
       sodipodi:nodetypes="cc" />
    <path
       style="fill:none;stroke:#000000;stroke-width:0.26458332px;stroke-linecap:butt;stroke-linejoin:miter;stroke-opacity:1"
       d="m 52.753166,27.67254 c 1.15645,-0.344487 0.708705,0.992188 1.322916,2.078869 0.727162,-0.611075 0.831812,-0.132756 0.944939,0.330729"
       id="path1819-80"
       inkscape:connector-curvature="0"
       sodipodi:nodetypes="ccc" />
    <ellipse
       style="opacity:0.66381836;fill:none;fill-opacity:1;stroke:#008700;stroke-width:0.56500006;stroke-linecap:round;stroke-linejoin:round;stroke-miterlimit:4;stroke-dasharray:none;stroke-opacity:1"
       id="path1139-8-9"
       cx="54.442249"
       cy="28.948212"
       rx="0.28348213"
       ry="0.25985864" />
    <path
       style="fill:none;stroke:#000000;stroke-width:0.26458332px;stroke-linecap:butt;stroke-linejoin:miter;stroke-opacity:1"
       d="m 29.199197,29.830699 c 1.903451,0.88935 2.374648,4.168958 6.815373,1.703842 2.649941,-1.200238 5.313478,-2.155748 8.051493,-1.77066 0.808557,0.183763 4.825385,1.219287 5.412208,2.57247 0.653346,1.468235 9.744238,3.148484 9.254206,0.467719 -0.344833,-2.020209 0.319811,-2.87001 3.040193,-1.336346"
       id="path2094"
       inkscape:connector-curvature="0"
       sodipodi:nodetypes="cccccc" />
    <path
       style="fill:none;stroke:#000000;stroke-width:0.26458332px;stroke-linecap:butt;stroke-linejoin:miter;stroke-opacity:1"
       d="m 57.262495,31.534541 c -1.439034,0.158368 -2.814311,0.252979 -6.681737,2.839739 -6.976089,4.413444 -13.622176,1.074428 -9.254207,-1.469983 4.225092,-2.461183 -2.447514,-3.361146 -6.214018,-2.672696 -3.352035,0.76903 -4.927264,1.096391 -4.777443,3.541323"
       id="path2096"
       inkscape:connector-curvature="0"
       sodipodi:nodetypes="ccscc" />
    <path
       style="fill:none;stroke:#000000;stroke-width:0.26458332px;stroke-linecap:butt;stroke-linejoin:miter;stroke-opacity:1"
       d="m 70.392112,30.966592 -6.648331,2.138156 c -6.247424,-0.14477 -4.706379,-3.675832 -18.742273,-0.434311 -3.886779,0.773915 -7.79513,1.030131 -11.726453,0.734992"
       id="path2098"
       inkscape:connector-curvature="0"
       sodipodi:nodetypes="cccc" />
    <path
       style="fill:none;stroke:#000000;stroke-width:0.26458332px;stroke-linecap:butt;stroke-linejoin:miter;stroke-opacity:1"
       d="m 24.789248,29.830699 c 5.967038,4.932162 14.023488,8.932991 13.396887,6.381059 -0.195507,-2.973953 3.544147,-3.455638 5.746292,-4.911079 3.281051,-1.393111 9.371014,-0.539093 14.733233,-0.267269"
       id="path2100"
       inkscape:connector-curvature="0"
       sodipodi:nodetypes="cccc" />
    <ellipse
       style="opacity:0.66381836;fill:none;fill-opacity:1;stroke:#008700;stroke-width:0.56500006;stroke-linecap:round;stroke-linejoin:round;stroke-miterlimit:4;stroke-dasharray:none;stroke-opacity:1"
       id="path1139-78-7"
       cx="26.954428"
       cy="29.416479"
       rx="0.28348213"
       ry="0.25985864" />
    <ellipse
       style="opacity:0.66381836;fill:none;fill-opacity:1;stroke:#008700;stroke-width:0.56500006;stroke-linecap:round;stroke-linejoin:round;stroke-miterlimit:4;stroke-dasharray:none;stroke-opacity:1"
       id="path1139-78-9"
       cx="31.466518"
       cy="29.274738"
       rx="0.28348213"
       ry="0.25985864" />
    <ellipse
       style="opacity:0.66381836;fill:none;fill-opacity:1;stroke:#008700;stroke-width:0.56500006;stroke-linecap:round;stroke-linejoin:round;stroke-miterlimit:4;stroke-dasharray:none;stroke-opacity:1"
       id="path1139-78-93"
       cx="35.529762"
       cy="30.881138"
       rx="0.28348213"
       ry="0.25985864" />
    <ellipse
       style="opacity:0.66381836;fill:none;fill-opacity:1;stroke:#008700;stroke-width:0.56500006;stroke-linecap:round;stroke-linejoin:round;stroke-miterlimit:4;stroke-dasharray:none;stroke-opacity:1"
       id="path1139-78-2"
       cx="40.136349"
       cy="30.574032"
       rx="0.28348213"
       ry="0.25985864" />
    <ellipse
       style="opacity:0.66381836;fill:none;fill-opacity:1;stroke:#008700;stroke-width:0.56500006;stroke-linecap:round;stroke-linejoin:round;stroke-miterlimit:4;stroke-dasharray:none;stroke-opacity:1"
       id="path1139-78-4"
       cx="43.467262"
       cy="30.337797"
       rx="0.28348213"
       ry="0.25985864" />
    <ellipse
       style="opacity:0.66381836;fill:none;fill-opacity:1;stroke:#008700;stroke-width:0.56500006;stroke-linecap:round;stroke-linejoin:round;stroke-miterlimit:4;stroke-dasharray:none;stroke-opacity:1"
       id="path1139-78-3"
       cx="48.144718"
       cy="30.76302"
       rx="0.28348213"
       ry="0.25985864" />
    <ellipse
       style="opacity:0.66381836;fill:none;fill-opacity:1;stroke:#008700;stroke-width:0.56500006;stroke-linecap:round;stroke-linejoin:round;stroke-miterlimit:4;stroke-dasharray:none;stroke-opacity:1"
       id="path1139-78-71"
       cx="57.09803"
       cy="31.070126"
       rx="0.28348213"
       ry="0.25985864" />
    <ellipse
       style="opacity:0.66381836;fill:none;fill-opacity:1;stroke:#008700;stroke-width:0.56500006;stroke-linecap:round;stroke-linejoin:round;stroke-miterlimit:4;stroke-dasharray:none;stroke-opacity:1"
       id="path1139-78-22"
       cx="61.373882"
       cy="30.786644"
       rx="0.28348213"
       ry="0.25985864" />
    <ellipse
       style="opacity:0.66381836;fill:none;fill-opacity:1;stroke:#008700;stroke-width:0.56500006;stroke-linecap:round;stroke-linejoin:round;stroke-miterlimit:4;stroke-dasharray:none;stroke-opacity:1"
       id="path1139-78-0"
       cx="65.342636"
       cy="30.952007"
       rx="0.28348213"
       ry="0.25985864" />
    <ellipse
       style="opacity:0.66381836;fill:none;fill-opacity:1;stroke:#008700;stroke-width:0.56500006;stroke-linecap:round;stroke-linejoin:round;stroke-miterlimit:4;stroke-dasharray:none;stroke-opacity:1"
       id="path1139-78-21"
       cx="68.224701"
       cy="30.526785"
       rx="0.28348213"
       ry="0.25985864" />
    <ellipse
       style="opacity:0.66381836;fill:none;fill-opacity:1;stroke:#008700;stroke-width:0.56500006;stroke-linecap:round;stroke-linejoin:round;stroke-miterlimit:4;stroke-dasharray:none;stroke-opacity:1"
       id="path1139-78-75"
       cx="71.366631"
       cy="30.76302"
       rx="0.28348213"
       ry="0.25985864" />
    <ellipse
       style="opacity:0.66381836;fill:none;fill-opacity:1;stroke:#008700;stroke-width:0.56500006;stroke-linecap:round;stroke-linejoin:round;stroke-miterlimit:4;stroke-dasharray:none;stroke-opacity:1"
       id="path1139-78-1"
       cx="45.451637"
       cy="31.873325"
       rx="0.28348213"
       ry="0.25985864" />
    <ellipse
       style="opacity:0.66381836;fill:none;fill-opacity:1;stroke:#008700;stroke-width:0.56500006;stroke-linecap:round;stroke-linejoin:round;stroke-miterlimit:4;stroke-dasharray:none;stroke-opacity:1"
       id="path1139-78-74"
       cx="33.592632"
       cy="29.534597"
       rx="0.28348213"
       ry="0.25985864" />
    <text
       xml:space="preserve"
       style="font-style:normal;font-weight:normal;font-size:10.58333302px;line-height:1.25;font-family:sans-serif;letter-spacing:0px;word-spacing:0px;fill:#000000;fill-opacity:1;stroke:none;stroke-width:0.26458332"
       x="40.065475"
       y="10.730282"
       id="text2191"><tspan
         sodipodi:role="line"
         id="tspan2189"
         x="40.065475"
         y="10.730282"
         style="font-style:normal;font-variant:normal;font-weight:normal;font-stretch:normal;font-size:4.23333311px;font-family:sans-serif;-inkscape-font-specification:'sans-serif, Normal';font-variant-ligatures:normal;font-variant-caps:normal;font-variant-numeric:normal;font-feature-settings:normal;text-align:start;writing-mode:lr-tb;text-anchor:start;stroke-width:0.26458332">Soredie</tspan></text>
  </g>
</svg>
