<?xml version="1.0" encoding="UTF-8" standalone="no"?>
<svg
   xmlns:dc="http://purl.org/dc/elements/1.1/"
   xmlns:cc="http://creativecommons.org/ns#"
   xmlns:rdf="http://www.w3.org/1999/02/22-rdf-syntax-ns#"
   xmlns:svg="http://www.w3.org/2000/svg"
   xmlns="http://www.w3.org/2000/svg"
   xmlns:sodipodi="http://sodipodi.sourceforge.net/DTD/sodipodi-0.dtd"
   xmlns:inkscape="http://www.inkscape.org/namespaces/inkscape"
   width="159.75284mm"
   height="94.929298mm"
   viewBox="0 0 159.75284 94.929298"
   version="1.1"
   id="svg8"
   inkscape:version="1.0.2 (e86c870879, 2021-01-15)"
   sodipodi:docname="svamptyp.svg">
  <defs
     id="defs2" />
  <sodipodi:namedview
     id="base"
     pagecolor="#ffffff"
     bordercolor="#666666"
     borderopacity="1.0"
     inkscape:pageopacity="0.0"
     inkscape:pageshadow="2"
     inkscape:zoom="1.4142136"
     inkscape:cx="122.44702"
     inkscape:cy="222.11247"
     inkscape:document-units="mm"
     inkscape:current-layer="layer1"
     inkscape:document-rotation="0"
     showgrid="false"
     fit-margin-top="0"
     fit-margin-left="0"
     fit-margin-right="0"
     fit-margin-bottom="0"
     inkscape:pagecheckerboard="true"
     inkscape:window-width="2560"
     inkscape:window-height="1389"
     inkscape:window-x="0"
     inkscape:window-y="0"
     inkscape:window-maximized="1" />
  <metadata
     id="metadata5">
    <rdf:RDF>
      <cc:Work
         rdf:about="">
        <dc:format>image/svg+xml</dc:format>
        <dc:type
           rdf:resource="http://purl.org/dc/dcmitype/StillImage" />
        <dc:title></dc:title>
      </cc:Work>
    </rdf:RDF>
  </metadata>
  <g
     inkscape:label="Layer 1"
     inkscape:groupmode="layer"
     id="layer1"
     transform="translate(-9.9040048,-65.556948)">
    <path
       id="path833"
       style="fill:#ff0000;fill-opacity:1;stroke:#ff0000;stroke-width:3.77953;stroke-miterlimit:4;stroke-dasharray:none;stroke-dashoffset:10.0157"
       d="m 333.82031,249.66406 a 94.291335,33.038059 0 0 0 -94.28125,33.03906 94.291335,33.038059 0 0 0 0.22656,2.29297 h 188.12891 a 94.291335,33.038059 0 0 0 0.22656,-2.29297 94.291335,33.038059 0 0 0 -94.29101,-33.03906 94.291335,33.038059 0 0 0 -0.01,0 z"
       transform="scale(0.26458333)" />
    <path
       style="fill:#ffffff;stroke:#000000;stroke-width:0.264583px;stroke-linecap:butt;stroke-linejoin:miter;stroke-opacity:1;fill-opacity:1"
       d="m 86.111519,75.88714 v 5.064593"
       id="path3150" />
    <path
       style="fill:#ffffff;stroke:#000000;stroke-width:0.264583px;stroke-linecap:butt;stroke-linejoin:miter;stroke-opacity:1;fill-opacity:1"
       d="M 92.927029,80.999998 V 75.89317"
       id="path3146" />
    <path
       style="fill:#ffffff;stroke:#000000;stroke-width:0.264583px;stroke-linecap:butt;stroke-linejoin:miter;stroke-opacity:1;fill-opacity:1"
       d="M 86.111518,85.175271 V 106.38805"
       id="path3144" />
    <path
       style="fill:#ffffff;stroke:#000000;stroke-width:0.264583px;stroke-linecap:butt;stroke-linejoin:miter;stroke-opacity:1;fill-opacity:1"
       d="M 92.927291,85.177454 V 106.46167"
       id="path958" />
    <circle
       style="fill:#ffffff;fill-opacity:1;stroke:#ffffff;stroke-width:0.264999;stroke-miterlimit:4;stroke-dasharray:none;stroke-dashoffset:10.0157;stroke-opacity:1"
       id="path961"
       cx="71.494583"
       cy="72.267441"
       r="1.6219614" />
    <circle
       style="fill:#ffffff;fill-opacity:1;stroke:#ffffff;stroke-width:0.264999;stroke-miterlimit:4;stroke-dasharray:none;stroke-dashoffset:10.0157;stroke-opacity:1"
       id="path961-4"
       cx="78.83506"
       cy="69.074135"
       r="1.6219614" />
    <circle
       style="fill:#ffffff;fill-opacity:1;stroke:#ffffff;stroke-width:0.264999;stroke-miterlimit:4;stroke-dasharray:none;stroke-dashoffset:10.0157;stroke-opacity:1"
       id="path961-3"
       cx="84.247612"
       cy="72.683945"
       r="1.6219614" />
    <circle
       style="fill:#ffffff;fill-opacity:1;stroke:#ffffff;stroke-width:0.264999;stroke-miterlimit:4;stroke-dasharray:none;stroke-dashoffset:10.0157;stroke-opacity:1"
       id="path961-0"
       cx="91.018639"
       cy="68.755089"
       r="1.6219614" />
    <circle
       style="fill:#ffffff;fill-opacity:1;stroke:#ffffff;stroke-width:0.264999;stroke-miterlimit:4;stroke-dasharray:none;stroke-dashoffset:10.0157;stroke-opacity:1"
       id="path961-7"
       cx="98.344673"
       cy="72.964577"
       r="1.6219614" />
    <circle
       style="fill:#ffffff;fill-opacity:1;stroke:#ffffff;stroke-width:0.264999;stroke-miterlimit:4;stroke-dasharray:none;stroke-dashoffset:10.0157;stroke-opacity:1"
       id="path961-8"
       cx="105.89219"
       cy="70.438881"
       r="1.6219614" />
    <path
       style="fill:none;stroke:#000000;stroke-width:0.264583px;stroke-linecap:butt;stroke-linejoin:miter;stroke-opacity:1"
       d="m 88.427509,112.3897 -10.705449,6.32903 c -4.632298,3.50101 0.140855,8.05071 -2.254107,9.06281 l -9.578092,2.99123 c -5.223474,1.85316 -11.031019,5.06108 -14.727232,3.37176 -3.383142,-2.12029 -6.526319,-3.9922 -10.386668,-0.66449 -4.075394,4.01806 -4.650067,5.43566 -6.007989,7.81009 -4.193422,4.03899 -10.546672,3.95646 -16.102926,2.63556"
       id="path1019"
       sodipodi:nodetypes="cccccccc" />
    <path
       style="fill:none;stroke:#000000;stroke-width:0.264583px;stroke-linecap:butt;stroke-linejoin:miter;stroke-opacity:1"
       d="m 88.427509,112.3897 c -4.404103,0.30142 -8.859954,0.3463 -12.964176,2.13438 -5.347866,3.67596 -6.206148,5.11849 -8.385445,6.86587 -6.553993,2.12766 -10.036103,-0.18048 -14.834479,1.0249 -2.995641,1.54798 -3.680924,3.19128 -4.550398,5.05168 l -15.812839,0.13561 c -6.824564,1.62132 -9.867159,5.30487 -13.459612,8.68859 -1.91728,0.72876 -3.834009,1.38496 -5.741341,0.80495"
       id="path1021"
       sodipodi:nodetypes="cccccccc" />
    <path
       style="fill:none;stroke:#000000;stroke-width:0.264583px;stroke-linecap:butt;stroke-linejoin:miter;stroke-opacity:1"
       d="m 91.018282,112.30503 6.694482,3.39463 4.012416,7.90757 c 9.05531,5.84571 15.67623,1.07713 23.51435,1.6157 3.49849,0.66502 9.56468,4.11085 14.37301,6.19442 2.88238,0.40606 7.56621,-0.41471 10.20891,-0.59251 2.7634,0.046 10.66484,3.73726 15.47896,8.66612 l -0.5663,3.52663"
       id="path1023"
       sodipodi:nodetypes="cccccccc" />
    <path
       style="fill:none;stroke:#000000;stroke-width:0.264583px;stroke-linecap:butt;stroke-linejoin:miter;stroke-opacity:1"
       d="m 88.427509,112.3897 c -1.240751,3.63616 -2.495513,7.27199 1.289968,11.02449 l 11.327533,10.8031 c 3.67358,4.1005 -1.473375,7.95599 -1.876564,8.34589 -1.672051,1.61692 3.538654,5.81224 8.670214,6.71202 8.42649,0.32485 11.11725,6.42525 16.66162,9.65222 2.15673,1.61792 4.44961,1.97081 6.82121,0.0334"
       id="path1025"
       sodipodi:nodetypes="cccsccc" />
    <path
       style="fill:none;stroke:#000000;stroke-width:0.264583px;stroke-linecap:butt;stroke-linejoin:miter;stroke-opacity:1"
       d="m 93.688645,127.34281 -4.843338,4.27695 -12.227655,5.07316 c -1.886584,2.93279 -3.596622,5.3773 -5.305708,10.07909 -3.877689,3.95171 -7.722222,0.45168 -12.677376,3.12593 l -10.472523,6.26594 c -2.952858,0.31544 -5.95376,1.01619 -8.705588,-0.28063"
       id="path1027"
       sodipodi:nodetypes="ccccccc" />
    <path
       style="fill:none;stroke:#000000;stroke-width:0.264583px;stroke-linecap:butt;stroke-linejoin:miter;stroke-opacity:1"
       d="m 64.08904,131.5116 c 0.174151,2.49024 -1.465621,4.30036 -3.415166,5.99434 l -7.145007,4.6664 c -1.685415,0.93727 -2.538651,3.66675 -3.278214,6.64104 -0.250703,0.51833 -4.757117,1.35223 -7.139179,2.08225 -4.283799,0.75172 -5.302074,0.48711 -6.774033,0.36371"
       id="path1029"
       sodipodi:nodetypes="cccccc" />
    <path
       style="fill:none;stroke:#000000;stroke-width:0.264583px;stroke-linecap:butt;stroke-linejoin:miter;stroke-opacity:1"
       d="m 46.612426,149.84805 4.229592,4.44539"
       id="path1031" />
    <path
       style="fill:none;stroke:#000000;stroke-width:0.264583px;stroke-linecap:butt;stroke-linejoin:miter;stroke-opacity:1"
       d="m 70.612857,129.36453 c 0.485094,2.731 0.524017,5.96336 -1.609017,8.31249 l -5.739929,4.55537 -8.037618,4.08318"
       id="path1033"
       sodipodi:nodetypes="cccc" />
    <path
       style="fill:none;stroke:#000000;stroke-width:0.264583px;stroke-linecap:butt;stroke-linejoin:miter;stroke-opacity:1"
       d="m 73.02103,142.07022 c -2.739403,-0.14347 -5.559946,0.15233 -8.680325,2.0714 l -5.108639,3.15649 -4.718198,2.44943"
       id="path1035"
       sodipodi:nodetypes="cccc" />
    <path
       style="fill:none;stroke:#000000;stroke-width:0.264583px;stroke-linecap:butt;stroke-linejoin:miter;stroke-opacity:1"
       d="m 63.263911,142.23239 -1.925166,3.56136"
       id="path1037" />
    <path
       style="fill:none;stroke:#000000;stroke-width:0.264583px;stroke-linecap:butt;stroke-linejoin:miter;stroke-opacity:1"
       d="m 67.80768,130.29932 c -2.733477,-1.77217 -5.718713,-5.03408 -11.644698,-1.92101 -2.511957,1.87324 -4.282681,3.463 -7.325765,2.73472 l -7.949568,-3.52923"
       id="path1039"
       sodipodi:nodetypes="cccc" />
    <path
       style="fill:none;stroke:#000000;stroke-width:0.264583px;stroke-linecap:butt;stroke-linejoin:miter;stroke-opacity:1"
       d="m 49.633639,124.27579 c -1.764116,-1.25427 -4.605364,-1.99368 -7.510113,-1.88197 l -7.650715,0.72599 -6.654924,0.38566 c -5.075064,1.91189 -6.26411,4.53007 -9.01301,6.86474 -1.727335,0.83956 -2.896265,-0.0302 -4.149268,-0.64264"
       id="path1041"
       sodipodi:nodetypes="cccccc" />
    <path
       style="fill:none;stroke:#000000;stroke-width:0.264583px;stroke-linecap:butt;stroke-linejoin:miter;stroke-opacity:1"
       d="m 22.963432,126.4689 -3.123484,5.9895"
       id="path1043"
       sodipodi:nodetypes="cc" />
    <path
       style="fill:none;stroke:#000000;stroke-width:0.264583px;stroke-linecap:butt;stroke-linejoin:miter;stroke-opacity:1"
       d="m 33.658042,123.01787 c 0.118217,-0.95836 -1.450433,-0.84907 -2.544005,-1.04046"
       id="path1045"
       sodipodi:nodetypes="cc" />
    <path
       style="fill:none;stroke:#000000;stroke-width:0.264583px;stroke-linecap:butt;stroke-linejoin:miter;stroke-opacity:1"
       d="m 59.185404,122.0749 c -0.852261,1.34807 -2.084495,1.7845 -3.333921,2.17968"
       id="path1047"
       sodipodi:nodetypes="cc" />
    <path
       style="fill:none;stroke:#000000;stroke-width:0.264583px;stroke-linecap:butt;stroke-linejoin:miter;stroke-opacity:1"
       d="m 71.157736,117.82632 c -0.167993,2.73037 -0.845841,5.70136 -2.033605,7.45785"
       id="path1049"
       sodipodi:nodetypes="cc" />
    <path
       style="fill:none;stroke:#000000;stroke-width:0.264583px;stroke-linecap:butt;stroke-linejoin:miter;stroke-opacity:1"
       d="m 77.72206,118.71873 c 2.524241,7.17466 1.273833,10.25361 -0.292852,12.98937"
       id="path1051"
       sodipodi:nodetypes="cc" />
    <path
       style="fill:none;stroke:#000000;stroke-width:0.264583px;stroke-linecap:butt;stroke-linejoin:miter;stroke-opacity:1"
       d="m 84.633265,133.44975 -4.647385,12.04567 -9.101138,6.63095"
       id="path1053" />
    <path
       style="fill:none;stroke:#000000;stroke-width:0.264583px;stroke-linecap:butt;stroke-linejoin:miter;stroke-opacity:1"
       d="m 77.21842,147.42717 7.081925,5.16874 -0.289084,5.93006"
       id="path1055" />
    <path
       style="fill:none;stroke:#000000;stroke-width:0.264583px;stroke-linecap:butt;stroke-linejoin:miter;stroke-opacity:1"
       d="m 99.242611,142.88848 c -2.379487,0.18592 -6.092189,3.92637 -6.60184,4.38444 -1.633397,1.46809 -1.803833,11.21811 -1.803833,11.21811 -0.661689,1.07715 -1.128491,2.46901 -3.161313,1.33197"
       id="path1057"
       sodipodi:nodetypes="cscc" />
    <path
       style="fill:none;stroke:#000000;stroke-width:0.264583px;stroke-linecap:butt;stroke-linejoin:miter;stroke-opacity:1"
       d="m 90.836938,158.49103 c 1.887847,1.27175 3.901216,1.59616 3.901216,1.59616"
       id="path1059"
       sodipodi:nodetypes="cc" />
    <path
       style="fill:none;stroke:#000000;stroke-width:0.264583px;stroke-linecap:butt;stroke-linejoin:miter;stroke-opacity:1"
       d="m 91.405671,151.77563 c 0.07824,1.96872 5.35361,1.35903 7.524428,2.20308"
       id="path1061"
       sodipodi:nodetypes="cc" />
    <path
       style="fill:none;stroke:#000000;stroke-width:0.264583px;stroke-linecap:butt;stroke-linejoin:miter;stroke-opacity:1"
       d="M 94.699112,144.84899 86.51532,141.73618"
       id="path1063" />
    <path
       style="fill:none;stroke:#000000;stroke-width:0.264583px;stroke-linecap:butt;stroke-linejoin:miter;stroke-opacity:1"
       d="m 88.845307,131.61976 2.406904,8.27263"
       id="path1065" />
    <path
       style="fill:none;stroke:#000000;stroke-width:0.264583px;stroke-linecap:butt;stroke-linejoin:miter;stroke-opacity:1"
       d="m 102.32112,138.83007 9.85818,4.18485"
       id="path1067"
       sodipodi:nodetypes="cc" />
    <path
       style="fill:none;stroke:#000000;stroke-width:0.264583px;stroke-linecap:butt;stroke-linejoin:miter;stroke-opacity:1"
       d="m 106.46118,140.5303 c 2.27993,-2.94396 6.02205,-4.14536 10.7629,-4.15651 6.86827,1.53599 6.7475,3.76099 8.99858,5.75217 3.68465,3.25874 7.6683,1.8498 11.51738,2.54155"
       id="path1069"
       sodipodi:nodetypes="cccc" />
    <path
       style="fill:none;stroke:#000000;stroke-width:0.264583px;stroke-linecap:butt;stroke-linejoin:miter;stroke-opacity:1"
       d="m 132.2163,144.36306 -0.32791,5.61165"
       id="path1071"
       sodipodi:nodetypes="cc" />
    <path
       style="fill:none;stroke:#000000;stroke-width:0.264583px;stroke-linecap:butt;stroke-linejoin:miter;stroke-opacity:1"
       d="m 117.35611,152.90788 c 2.64478,-0.89033 6.32916,-2.11444 4.8372,-1.66736"
       id="path1073"
       sodipodi:nodetypes="cc" />
    <path
       style="fill:none;stroke:#000000;stroke-width:0.264583px;stroke-linecap:butt;stroke-linejoin:miter;stroke-opacity:1"
       d="m 127.46048,160.0907 0.21858,-7.36796 c -0.55219,-1.60926 -1.20068,-3.22383 -4.40959,-4.97973 l 2.93464,-1.89981"
       id="path1075"
       sodipodi:nodetypes="cccc" />
    <path
       style="fill:none;stroke:#000000;stroke-width:0.264583px;stroke-linecap:butt;stroke-linejoin:miter;stroke-opacity:1"
       d="m 123.26947,147.74301 -4.99304,-1.75898"
       id="path1077" />
    <path
       style="fill:none;stroke:#000000;stroke-width:0.264583px;stroke-linecap:butt;stroke-linejoin:miter;stroke-opacity:1"
       d="m 132.4016,146.67137 c 3.05473,0.0484 4.41561,1.32034 5.89631,2.50577"
       id="path1079"
       sodipodi:nodetypes="cc" />
    <path
       style="fill:none;stroke:#000000;stroke-width:0.264583px;stroke-linecap:butt;stroke-linejoin:miter;stroke-opacity:1"
       d="m 134.90772,144.27341 4.19888,-4.91582"
       id="path1081"
       sodipodi:nodetypes="cc" />
    <path
       style="fill:none;stroke:#000000;stroke-width:0.264583px;stroke-linecap:butt;stroke-linejoin:miter;stroke-opacity:1"
       d="m 117.16966,125.97673 3.99761,5.61178"
       id="path1083"
       sodipodi:nodetypes="cc" />
    <path
       style="fill:none;stroke:#000000;stroke-width:0.264583px;stroke-linecap:butt;stroke-linejoin:miter;stroke-opacity:1"
       d="m 120.05232,129.27048 5.71679,0.005"
       id="path1085" />
    <path
       style="fill:none;stroke:#000000;stroke-width:0.264583px;stroke-linecap:butt;stroke-linejoin:miter;stroke-opacity:1"
       d="m 132.1214,127.98148 -1.34671,6.87674"
       id="path1087"
       sodipodi:nodetypes="cc" />
    <path
       style="fill:none;stroke:#000000;stroke-width:0.264583px;stroke-linecap:butt;stroke-linejoin:miter;stroke-opacity:1"
       d="m 135.42639,129.54869 5.60647,-2.19317"
       id="path1089" />
    <path
       style="fill:none;stroke:#000000;stroke-width:0.264583px;stroke-linecap:butt;stroke-linejoin:miter;stroke-opacity:1"
       d="m 137.92657,128.499 -0.81501,-3.66528"
       id="path1091"
       sodipodi:nodetypes="cc" />
    <path
       style="fill:none;stroke:#000000;stroke-width:0.264583px;stroke-linecap:butt;stroke-linejoin:miter;stroke-opacity:1"
       d="m 100.04008,119.8674 10.75263,-0.71293 c 4.21903,1.46607 8.65023,2.46578 13.65406,2.20679 l 5.58086,-1.53094"
       id="path1093"
       sodipodi:nodetypes="cccc" />
    <path
       style="fill:none;stroke:#000000;stroke-width:0.264583px;stroke-linecap:butt;stroke-linejoin:miter;stroke-opacity:1"
       d="m 110.79271,119.15447 10.80881,-2.43453"
       id="path1095" />
    <path
       style="fill:none;stroke:#000000;stroke-width:0.264583px;stroke-linecap:butt;stroke-linejoin:miter;stroke-opacity:1"
       d="m 126.72932,120.84647 5.29018,4.61348"
       id="path1097" />
    <path
       style="fill:none;stroke:#000000;stroke-width:0.264583px;stroke-linecap:butt;stroke-linejoin:miter;stroke-opacity:1"
       d="m 130.07784,123.37071 c 0.37962,0 8.56971,-2.42436 8.56971,-2.42436"
       id="path1099" />
    <path
       style="fill:none;stroke:#000000;stroke-width:0.264583px;stroke-linecap:butt;stroke-linejoin:miter;stroke-opacity:1"
       d="m 135.85832,121.83865 c 6.59876,0.8075 11.21422,2.54414 15.02632,4.65715"
       id="path1101"
       sodipodi:nodetypes="cc" />
    <path
       style="fill:none;stroke:#000000;stroke-width:0.264583px;stroke-linecap:butt;stroke-linejoin:miter;stroke-opacity:1"
       d="m 145.19284,131.08305 1.96313,-5.56396 v 0"
       id="path1103"
       sodipodi:nodetypes="ccc" />
    <path
       style="fill:none;stroke:#000000;stroke-width:0.264583px;stroke-linecap:butt;stroke-linejoin:miter;stroke-opacity:1"
       d="m 164.44343,127.99052 c -0.93743,-1.14064 -2.69075,-2.2466 -5.96288,-3.28799 -3.70336,-0.7861 -5.59227,0.57135 -7.59591,1.79327 l 6.53743,5.83881"
       id="path1105"
       sodipodi:nodetypes="cccc" />
    <path
       style="fill:none;stroke:#000000;stroke-width:0.264583px;stroke-linecap:butt;stroke-linejoin:miter;stroke-opacity:1"
       d="m 165.30041,139.49096 3.67887,0.15631"
       id="path1107" />
    <path
       style="fill:none;stroke:#000000;stroke-width:0.264583px;stroke-linecap:butt;stroke-linejoin:miter;stroke-opacity:1"
       d="m 155.06292,132.82242 1.78486,10.70846"
       id="path1109"
       sodipodi:nodetypes="cc" />
    <path
       style="fill:none;stroke:#000000;stroke-width:0.264583px;stroke-linecap:butt;stroke-linejoin:miter;stroke-opacity:1"
       d="m 142.38994,131.5103 8.50837,25.22933 c 3.32964,4.04195 5.59506,3.05686 8.18766,3.61731"
       id="path1111"
       sodipodi:nodetypes="ccc" />
    <path
       style="fill:none;stroke:#000000;stroke-width:0.264583px;stroke-linecap:butt;stroke-linejoin:miter;stroke-opacity:1"
       d="m 147.85439,146.63707 5.3783,-0.46772"
       id="path1113" />
    <path
       style="fill:none;stroke:#000000;stroke-width:0.264583px;stroke-linecap:butt;stroke-linejoin:miter;stroke-opacity:1"
       d="m 145.25084,140.58953 -1.92046,10.00601"
       id="path1115" />
    <path
       style="fill:none;stroke:#000000;stroke-width:0.264583px;stroke-linecap:butt;stroke-linejoin:miter;stroke-opacity:1"
       d="m 144.28645,146.28736 1.70743,3.44702"
       id="path1117" />
    <path
       id="rect3154"
       style="fill:#ffffff;fill-opacity:1;stroke:#fafafa;stroke-width:1.00157481;stroke-miterlimit:4;stroke-dasharray:none;stroke-dashoffset:10.0157;stroke-opacity:1"
       d="M 288.0293 39.066406 L 288.0293 58.185547 L 313.78711 58.185547 L 313.78711 39.066406 L 288.0293 39.066406 z M 287.83984 58.367188 L 281.85547 74.042969 L 319.37695 74.042969 L 313.78711 58.367188 L 287.83984 58.367188 z M 288.0293 74.148438 L 288.0293 154.32227 C 285.06606 156.92069 282.75 159.06415 282.75 162.57812 C 282.74998 170.37166 290.66354 176.68945 300.42578 176.68945 C 310.18802 176.68945 318.10159 170.37166 318.10156 162.57812 C 318.10156 159.064 316.75254 157.19803 313.78906 154.59961 L 313.78906 74.148438 L 288.0293 74.148438 z "
       transform="matrix(0.26458333,0,0,0.26458333,9.9040048,65.556948)" />
    <path
       style="fill:none;stroke:#825500;stroke-width:1.065;stroke-linecap:butt;stroke-linejoin:miter;stroke-miterlimit:4;stroke-dasharray:none;stroke-opacity:1"
       d="M 9.9040048,111.95459 H 169.65684"
       id="path1119" />
  </g>
</svg>
