<?xml version="1.0" encoding="UTF-8" standalone="no"?>
<!-- Created with Inkscape (http://www.inkscape.org/) -->

<svg
   xmlns:dc="http://purl.org/dc/elements/1.1/"
   xmlns:cc="http://creativecommons.org/ns#"
   xmlns:rdf="http://www.w3.org/1999/02/22-rdf-syntax-ns#"
   xmlns:svg="http://www.w3.org/2000/svg"
   xmlns="http://www.w3.org/2000/svg"
   xmlns:sodipodi="http://sodipodi.sourceforge.net/DTD/sodipodi-0.dtd"
   xmlns:inkscape="http://www.inkscape.org/namespaces/inkscape"
   width="71.547058mm"
   height="50.557873mm"
   viewBox="0 0 71.547059 50.557873"
   version="1.1"
   id="svg8"
   inkscape:version="0.92.3 (2405546, 2018-03-11)"
   sodipodi:docname="veil.svg"
   inkscape:export-filename="/home/martin/CloudStation/CloudStation/teaching/artidentifiering_naturvardare/2021/foreläsning/img/ring.png"
   inkscape:export-xdpi="900"
   inkscape:export-ydpi="900">
  <defs
     id="defs2">
    <marker
       inkscape:isstock="true"
       style="overflow:visible"
       id="marker1415"
       refX="0"
       refY="0"
       orient="auto"
       inkscape:stockid="Arrow1Lend">
      <path
         transform="matrix(-0.8,0,0,-0.8,-10,0)"
         style="fill:#000000;fill-opacity:1;fill-rule:evenodd;stroke:#000000;stroke-width:1.00000003pt;stroke-opacity:1"
         d="M 0,0 5,-5 -12.5,0 5,5 Z"
         id="path1413"
         inkscape:connector-curvature="0" />
    </marker>
    <marker
       inkscape:stockid="Arrow1Lend"
       orient="auto"
       refY="0"
       refX="0"
       id="Arrow1Lend"
       style="overflow:visible"
       inkscape:isstock="true"
       inkscape:collect="always">
      <path
         id="path898"
         d="M 0,0 5,-5 -12.5,0 5,5 Z"
         style="fill:#000000;fill-opacity:1;fill-rule:evenodd;stroke:#000000;stroke-width:1.00000003pt;stroke-opacity:1"
         transform="matrix(-0.8,0,0,-0.8,-10,0)"
         inkscape:connector-curvature="0" />
    </marker>
  </defs>
  <sodipodi:namedview
     id="base"
     pagecolor="#ffffff"
     bordercolor="#666666"
     borderopacity="1.0"
     inkscape:pageopacity="0.0"
     inkscape:pageshadow="2"
     inkscape:zoom="2.8"
     inkscape:cx="293.30494"
     inkscape:cy="170.94249"
     inkscape:document-units="mm"
     inkscape:current-layer="layer1"
     showgrid="false"
     inkscape:window-width="2493"
     inkscape:window-height="1385"
     inkscape:window-x="67"
     inkscape:window-y="27"
     inkscape:window-maximized="1"
     fit-margin-top="0"
     fit-margin-left="0"
     fit-margin-right="0"
     fit-margin-bottom="0" />
  <metadata
     id="metadata5">
    <rdf:RDF>
      <cc:Work
         rdf:about="">
        <dc:format>image/svg+xml</dc:format>
        <dc:type
           rdf:resource="http://purl.org/dc/dcmitype/StillImage" />
        <dc:title></dc:title>
      </cc:Work>
    </rdf:RDF>
  </metadata>
  <g
     inkscape:label="Layer 1"
     inkscape:groupmode="layer"
     id="layer1"
     transform="translate(-71.948175,-124.44935)">
    <ellipse
       style="opacity:0.66381836;fill:none;fill-opacity:1;stroke:#000000;stroke-width:0.50844425;stroke-linecap:round;stroke-linejoin:round;stroke-miterlimit:4;stroke-dasharray:none;stroke-opacity:1"
       id="path815"
       cx="108.14845"
       cy="151.69479"
       rx="17.178947"
       ry="23.058203" />
    <path
       style="fill:none;stroke:#000000;stroke-width:0.565;stroke-linecap:round;stroke-linejoin:miter;stroke-miterlimit:4;stroke-dasharray:none;stroke-opacity:1"
       d="m 97.517855,169.45188 c 1.59346,0.28724 6.720945,0.0736 6.803565,-1.65366 l 0.0945,-17.05617 c -0.15925,-2.29759 -0.62526,-4.28842 -3.02381,-4.34672 l -8.126486,0.0945 c -0.887729,0.14881 -1.689921,0.42593 -2.078868,1.32292 0.554057,1.11533 1.008536,2.33025 1.795385,3.21279 1.269368,1.37015 2.282732,1.46028 3.307292,1.6064 2.195166,0.3074 3.62197,-6.1e-4 5.197177,-0.47247 1.80191,-0.68166 2.32533,-0.97535 2.92931,-1.41742"
       id="path817"
       inkscape:connector-curvature="0"
       sodipodi:nodetypes="cccccccccc" />
    <path
       style="fill:none;stroke:#000000;stroke-width:0.565;stroke-linecap:round;stroke-linejoin:miter;stroke-miterlimit:4;stroke-dasharray:none;stroke-opacity:1"
       d="m 91.15132,150.13965 c 0.691693,0.88627 2.351841,2.33036 3.200987,2.77576 1.346684,0.4841 2.622341,0.52882 3.909689,0.59059 l 6.248424,0.0945"
       id="path821"
       inkscape:connector-curvature="0"
       sodipodi:nodetypes="cccc" />
    <path
       style="fill:none;stroke:#000000;stroke-width:0.565;stroke-linecap:round;stroke-linejoin:miter;stroke-miterlimit:4;stroke-dasharray:none;stroke-opacity:1"
       d="m 118.83139,169.40128 c -1.59346,0.28724 -7.61865,0.4043 -7.70127,-1.32292 l 0.66146,-17.19792 c 0.15925,-2.29759 0.62526,-4.28842 3.02381,-4.34672 l 8.12649,0.0945 c 0.88773,0.14881 1.68992,0.42593 2.07886,1.32292 -0.55405,1.11533 -1.00853,2.33025 -1.79538,3.21279 -1.26937,1.37015 -2.28273,1.46028 -3.30729,1.6064 -2.19517,0.3074 -3.62197,-6.1e-4 -5.19718,-0.47247 -1.80191,-0.68166 -2.32533,-0.97535 -2.92931,-1.41742"
       id="path817-1"
       inkscape:connector-curvature="0"
       sodipodi:nodetypes="cccccccccc" />
    <path
       style="fill:none;stroke:#000000;stroke-width:0.565;stroke-linecap:round;stroke-linejoin:miter;stroke-miterlimit:4;stroke-dasharray:none;stroke-opacity:1"
       d="m 125.19792,150.32528 c -0.6917,0.88627 -2.49358,2.28312 -3.34273,2.72852 -1.34668,0.4841 -2.62234,0.52882 -3.90969,0.59059 l -6.24842,0.0945"
       id="path821-8"
       inkscape:connector-curvature="0"
       sodipodi:nodetypes="cccc" />
    <path
       style="opacity:0.66381836;fill:#953c0b;fill-opacity:0.6627451;stroke:#000000;stroke-width:0.01580849;stroke-linecap:round;stroke-linejoin:round;stroke-miterlimit:4;stroke-dasharray:none;stroke-opacity:1"
       d=""
       id="path850"
       inkscape:connector-curvature="0"
       transform="scale(0.26458333)" />
    <path
       style="opacity:0.66381836;fill:#963c0a;fill-opacity:1;stroke:#000000;stroke-width:0.17885263;stroke-linecap:round;stroke-linejoin:round;stroke-miterlimit:4;stroke-dasharray:none;stroke-opacity:1"
       d="m 365.33622,576.4753 c -6.8514,-0.84315 -9.42409,-1.96087 -12.95321,-5.62761 -1.85061,-1.92279 -3.12651,-3.93581 -5.13517,-8.10196 -1.47558,-3.06049 -1.50472,-3.14667 -1.41152,-4.17452 0.0848,-0.93555 0.17709,-1.13299 0.84971,-1.81834 0.95642,-0.97453 2.54631,-1.75944 4.46764,-2.20564 1.39601,-0.3242 2.54884,-0.35974 16.05755,-0.49503 8.00447,-0.0802 15.26254,-0.12635 16.12906,-0.10264 2.939,0.0804 4.8804,0.84398 6.65302,2.6166 1.92268,1.92269 3.11097,5.0298 3.71839,9.72274 0.42611,3.29219 0.4683,3.09492 -0.83852,3.92025 -4.44692,2.80849 -11.66704,5.33651 -17.71552,6.20284 -1.96673,0.2817 -7.74417,0.31894 -9.82143,0.0633 z"
       id="path856"
       inkscape:connector-curvature="0"
       transform="scale(0.26458333)" />
    <path
       style="opacity:0.66381836;fill:#963c0a;fill-opacity:0.98760328;stroke:#000000;stroke-width:0.17885263;stroke-linecap:round;stroke-linejoin:round;stroke-miterlimit:4;stroke-dasharray:none;stroke-opacity:1"
       d="m 442.78081,577.07696 c -2.27654,-0.33999 -4.8131,-0.86433 -6.73536,-1.39228 -3.80995,-1.04642 -9.41839,-3.41788 -11.93152,-5.04509 l -0.98914,-0.64046 0.1317,-1.44878 c 0.50378,-5.54173 1.66247,-9.04147 3.72252,-11.24367 1.69256,-1.80936 3.76745,-2.71035 6.51609,-2.8295 0.6875,-0.0298 7.95982,0.0146 16.16071,0.0987 14.70569,0.15076 14.93304,0.1585 16.53375,0.56278 1.75876,0.44419 3.08973,1.04416 3.98208,1.79502 0.61729,0.51942 1.62703,1.89666 1.62703,2.21921 0,0.42304 -3.7564,7.90372 -4.67979,9.31957 -2.53141,3.88144 -6.26059,6.71652 -10.05235,7.64222 -2.91717,0.71218 -5.06164,0.93653 -9.46429,0.99013 -2.35714,0.0287 -4.52678,0.0162 -4.82143,-0.0278 z"
       id="path858"
       inkscape:connector-curvature="0"
       transform="scale(0.26458333)" />
    <text
       xml:space="preserve"
       style="font-style:normal;font-variant:normal;font-weight:normal;font-stretch:normal;font-size:4.23333311px;line-height:1.25;font-family:sans-serif;-inkscape-font-specification:'sans-serif, Normal';font-variant-ligatures:normal;font-variant-caps:normal;font-variant-numeric:normal;font-feature-settings:normal;text-align:start;letter-spacing:0px;word-spacing:0px;writing-mode:lr-tb;text-anchor:start;fill:#000000;fill-opacity:1;stroke:none;stroke-width:0.26458332"
       x="71.580238"
       y="169.33759"
       id="text883"><tspan
         sodipodi:role="line"
         x="71.580238"
         y="169.33759"
         style="font-style:normal;font-variant:normal;font-weight:normal;font-stretch:normal;font-size:4.23333311px;font-family:sans-serif;-inkscape-font-specification:'sans-serif, Normal';font-variant-ligatures:normal;font-variant-caps:normal;font-variant-numeric:normal;font-feature-settings:normal;text-align:start;writing-mode:lr-tb;text-anchor:start;stroke-width:0.26458332"
         id="tspan885">Universale</tspan></text>
    <text
       xml:space="preserve"
       style="font-style:normal;font-variant:normal;font-weight:normal;font-stretch:normal;font-size:4.23333311px;line-height:1.25;font-family:sans-serif;-inkscape-font-specification:'sans-serif, Normal';font-variant-ligatures:normal;font-variant-caps:normal;font-variant-numeric:normal;font-feature-settings:normal;text-align:start;letter-spacing:0px;word-spacing:0px;writing-mode:lr-tb;text-anchor:start;fill:#000000;fill-opacity:1;stroke:none;stroke-width:0.26458332"
       x="127.8042"
       y="157.1951"
       id="text891"><tspan
         sodipodi:role="line"
         id="tspan889"
         x="127.8042"
         y="157.1951"
         style="font-style:normal;font-variant:normal;font-weight:normal;font-stretch:normal;font-size:4.23333311px;font-family:sans-serif;-inkscape-font-specification:'sans-serif, Normal';font-variant-ligatures:normal;font-variant-caps:normal;font-variant-numeric:normal;font-feature-settings:normal;text-align:start;writing-mode:lr-tb;text-anchor:start;stroke-width:0.26458332">Partiale</tspan></text>
    <path
       style="fill:none;stroke:#000000;stroke-width:0.26499999;stroke-linecap:butt;stroke-linejoin:miter;stroke-miterlimit:4;stroke-dasharray:none;stroke-opacity:1;marker-end:url(#Arrow1Lend)"
       d="m 84.195194,165.74681 7.46503,-4.34674"
       id="path893"
       inkscape:connector-curvature="0"
       sodipodi:nodetypes="cc" />
    <path
       style="fill:none;stroke:#000000;stroke-width:0.26458332px;stroke-linecap:butt;stroke-linejoin:miter;stroke-opacity:1;marker-end:url(#marker1415)"
       d="m 127.001,155.63594 c -8.32112,3.09128 -7.43614,0.93937 -9.35491,-0.85045"
       id="path1405"
       inkscape:connector-curvature="0"
       sodipodi:nodetypes="cc" />
    <text
       xml:space="preserve"
       style="font-style:normal;font-variant:normal;font-weight:normal;font-stretch:normal;font-size:4.23333311px;line-height:1.25;font-family:sans-serif;-inkscape-font-specification:'sans-serif, Normal';font-variant-ligatures:normal;font-variant-caps:normal;font-variant-numeric:normal;font-feature-settings:normal;text-align:start;letter-spacing:0px;word-spacing:0px;writing-mode:lr-tb;text-anchor:start;fill:#000000;fill-opacity:1;stroke:none;stroke-width:0.26458332"
       x="101.4876"
       y="127.66569"
       id="text1491"><tspan
         sodipodi:role="line"
         id="tspan1489"
         x="101.4876"
         y="127.66569"
         style="font-style:normal;font-variant:normal;font-weight:normal;font-stretch:normal;font-size:4.23333311px;font-family:sans-serif;-inkscape-font-specification:'sans-serif, Normal';font-variant-ligatures:normal;font-variant-caps:normal;font-variant-numeric:normal;font-feature-settings:normal;text-align:start;writing-mode:lr-tb;text-anchor:start;stroke-width:0.26458332">Velum</tspan></text>
  </g>
</svg>
